<svg width="70" height="68" viewBox="0 0 70 68" fill="none" xmlns="http://www.w3.org/2000/svg">
<g clip-path="url(#clip0_303_131)">
<path d="M58.076 0H11.564C5.17962 0 0.00402832 5.17559 0.00402832 11.56V56.3312C0.00402832 62.7156 5.17962 67.8912 11.564 67.8912H58.076C64.4604 67.8912 69.636 62.7156 69.636 56.3312V11.56C69.636 5.17559 64.4604 0 58.076 0Z" fill="#00005B"/>
<path d="M27.9773 40.6184H17.1868L14.9912 47.4514C14.963 47.5685 14.8972 47.6731 14.8038 47.7491C14.7103 47.8252 14.5945 47.8684 14.4741 47.8721L8.96557 47.8719C8.65386 47.8719 8.54479 47.7005 8.63863 47.3578L17.981 20.5633L18.0743 20.2818L18.1053 20.1855L18.1679 19.9843C18.1989 19.8803 18.2299 19.7702 18.2612 19.6508C18.3836 19.0276 18.4461 18.3941 18.448 17.759C18.4417 17.7146 18.4458 17.6693 18.46 17.6268C18.4742 17.5843 18.4981 17.5456 18.5298 17.5139C18.5616 17.4822 18.6002 17.4583 18.6428 17.4441C18.6853 17.4299 18.7306 17.4258 18.775 17.4321H26.2022C26.4198 17.4321 26.5441 17.5099 26.5759 17.6657L37.1793 47.4048C37.2726 47.7163 37.1793 47.8721 36.8992 47.8719H30.8265C30.7222 47.8834 30.6173 47.8566 30.5313 47.7965C30.4454 47.7363 30.3843 47.6469 30.3595 47.5449L27.9773 40.6184ZM18.8686 34.8572H26.249L26.1437 34.5099L25.9748 33.9599L25.7276 33.1722L25.2529 31.6851L24.8009 30.2561L23.9598 27.5935C23.7275 26.8585 23.5044 26.1206 23.2907 25.3799L23.0519 24.5378L22.7941 23.6149L22.5585 22.7589H22.5117C22.2781 23.8802 21.9935 24.9902 21.6587 26.0855L21.3432 27.0981L20.5843 29.5461L20.1997 30.7933C20.1301 31.0185 20.061 31.2412 19.9916 31.4613L19.7849 32.1136L19.5793 32.7506L19.3747 33.3718L19.1713 33.9776C19.0701 34.2768 18.9689 34.5697 18.8686 34.8572ZM54.3694 37.9591H45.1674C45.2801 38.8695 45.5825 39.7462 46.055 40.5325C46.5773 41.3112 47.316 41.9201 48.1801 42.2842C49.3512 42.791 50.6179 43.0392 51.8937 43.012C52.9059 42.9926 53.9143 42.882 54.9067 42.6813C55.7941 42.5615 56.6639 42.3348 57.4969 42.0062C57.6525 41.8822 57.7308 41.9594 57.7308 42.2396V46.6772C57.7384 46.7983 57.7142 46.9191 57.6604 47.0276C57.6071 47.1124 57.5353 47.1843 57.4504 47.2378C56.5263 47.6472 55.5538 47.937 54.5563 48.1001C53.2013 48.3545 51.8241 48.4718 50.4456 48.4501C48.3033 48.4501 46.4975 48.1286 45.0282 47.4859L44.8867 47.4225C43.4742 46.8002 42.2267 45.8565 41.2435 44.6666C40.3251 43.5454 39.642 42.2507 39.2348 40.8597C38.8319 39.4867 38.6275 38.0632 38.628 36.6323C38.6237 35.0699 38.8681 33.5167 39.3521 32.0311C39.8181 30.5821 40.5551 29.2347 41.524 28.0607C42.4796 26.9004 43.6746 25.9602 45.0273 25.3046C46.3974 24.6355 48.0169 24.3953 49.8853 24.3953C51.4349 24.3561 52.974 24.6591 54.3931 25.2828C55.5863 25.7917 56.6367 26.585 57.4526 27.5935C58.2178 28.581 58.8029 29.6958 59.1809 30.8866C59.5489 32.0341 59.738 33.2316 59.7415 34.4367C59.7415 35.1221 59.7181 35.745 59.6715 36.3053L59.6299 36.7852L59.5864 37.2405L59.5606 37.4711C59.5586 37.4874 59.5566 37.5036 59.5546 37.5198C59.5425 37.6228 59.493 37.7177 59.4155 37.7866C59.3381 37.8555 59.238 37.8935 59.1343 37.8936L59.0062 37.8963L58.8466 37.9044L58.7223 37.9134L58.4318 37.9382L58.1766 37.9635C58.1073 37.9708 58.0352 37.9776 57.9604 37.9839L57.7289 38.0021L57.4817 38.0184L57.2192 38.032L56.9412 38.0437L56.7962 38.0486L56.4951 38.0567C56.1973 38.0641 55.8921 38.0456 55.579 38.0227L55.1041 37.9879C54.8597 37.97 54.6148 37.9604 54.3697 37.9591H54.3694ZM45.1674 33.7037H51.5284L52.0702 33.7001L52.4385 33.695L52.6771 33.6895L52.9447 33.6803C53.1843 33.6563 53.4156 33.5797 53.622 33.4559V33.1757C53.6127 32.8104 53.5498 32.4484 53.4354 32.1013C53.1834 31.3044 52.6767 30.6122 51.9932 30.1311C51.3097 29.65 50.4871 29.4067 49.6519 29.4384C48.8657 29.3909 48.0827 29.5732 47.3983 29.963C46.714 30.3529 46.1579 30.9335 45.7979 31.634C45.4779 32.2856 45.265 32.9846 45.1674 33.7039V33.7037Z" fill="#9999FF"/>
</g>
<defs>
<clipPath id="clip0_303_131">
<rect width="69.64" height="68" fill="white"/>
</clipPath>
</defs>
</svg>
