<svg width="74" height="68" viewBox="0 0 74 68" fill="none" xmlns="http://www.w3.org/2000/svg">
<path d="M35.5104 53.6841C48.2897 53.6841 58.1672 44.0699 58.1672 32.2106C58.1672 21.0997 48.8878 14.3161 42.7414 14.3161C34.1828 14.3161 27.3222 20.2967 26.3448 29.1754C26.1638 30.8195 24.8555 32.1984 23.1952 32.1867C20.4356 32.1669 16.4227 32.1434 13.8827 32.1522C12.7891 32.156 11.8853 31.2724 11.9392 30.184C12.3222 22.4836 14.9081 15.2836 19.8386 9.75295C25.3172 3.60736 33.2958 0 42.7414 0C58.6114 0 73.5931 14.3593 73.5931 32.2106C73.5931 51.9766 57.1472 68 35.848 68C20.6586 68 5.36025 58.1154 0.0188803 44.2957C-0.000332553 44.2445 -0.00499401 44.189 0.00541002 44.1353C0.0769708 43.7265 0.217987 43.3529 0.356899 42.9853C0.558954 42.4505 0.756795 41.9275 0.728172 41.3251L0.635562 39.4001C0.61429 38.9342 0.732804 38.4725 0.975964 38.0741C1.21913 37.6756 1.5759 37.3585 2.00069 37.1633L2.7727 36.8052C3.20522 36.6059 3.58348 36.306 3.87572 35.9307C4.16797 35.5555 4.36568 35.1157 4.45227 34.6485C4.71115 33.2369 5.95547 32.2106 7.40812 32.2106C9.67706 32.2106 11.6496 33.7129 12.3904 35.8486C15.9571 46.1284 21.6272 53.6841 35.5104 53.6841Z" fill="#FB6970"/>
</svg>
