<svg width="56" height="63" viewBox="0 0 56 63" fill="none" xmlns="http://www.w3.org/2000/svg">
<g clip-path="url(#clip0_303_79)">
<path d="M5.27945 56.4924L0.225952 0.262695H55.774L50.7137 56.4835L27.9662 62.7377L5.27945 56.4924Z" fill="#1572B6"/>
<path d="M28 57.9584L46.3825 52.9046L50.707 4.86133H28V57.9584Z" fill="#33A9DC"/>
<path d="M28 25.2321H37.2025L37.837 18.1702H28V11.2734H45.4375L45.271 13.1231L43.5632 32.1289H28V25.2321Z" fill="white"/>
<path d="M28.0428 43.1423L28.0113 43.1513L20.2668 41.0762L19.7718 35.5762H12.79L13.7643 46.4044L28.009 50.327L28.0428 50.318V43.1423Z" fill="#EBEBEB"/>
<path d="M36.6107 31.8369L35.7737 41.0721L28.0179 43.1471V50.3228L42.2739 46.4047L42.3797 45.24L43.5879 31.8369H36.6107Z" fill="white"/>
<path d="M28.0248 11.2734V18.1702H11.2263L11.0868 16.6195L10.7695 13.1231L10.603 11.2734H28.0248ZM28 25.2321V32.1289H20.3523L20.2128 30.5782L19.8978 27.0818L19.7313 25.2321H28Z" fill="#EBEBEB"/>
</g>
<defs>
<clipPath id="clip0_303_79">
<rect width="56" height="63" fill="white"/>
</clipPath>
</defs>
</svg>
