<svg width="70" height="68" viewBox="0 0 70 68" fill="none" xmlns="http://www.w3.org/2000/svg">
<g clip-path="url(#clip0_303_136)">
<path d="M58.076 0H11.564C5.17962 0 0.00402832 5.17559 0.00402832 11.56V56.3312C0.00402832 62.7156 5.17962 67.8912 11.564 67.8912H58.076C64.4604 67.8912 69.636 62.7156 69.636 56.3312V11.56C69.636 5.17559 64.4604 0 58.076 0Z" fill="#470137"/>
<path d="M6.61664 47.5159V17.8078C6.61122 17.7626 6.61507 17.7168 6.62794 17.6732C6.64082 17.6296 6.66245 17.589 6.69153 17.554C6.7206 17.5191 6.7565 17.4904 6.79703 17.4697C6.83756 17.4491 6.88188 17.437 6.92726 17.434L7.00315 17.4291L7.25366 17.4147L7.53899 17.4017L7.97283 17.3862L8.46787 17.3726L8.87995 17.3641L10.7927 17.3331L11.8972 17.3173L12.5985 17.3092L13.3174 17.3024L14.0539 17.2978L14.8085 17.295L15.5807 17.2939C19.0536 17.2939 21.946 17.9049 24.258 19.1267L24.4114 19.2091C26.6533 20.3915 28.486 22.223 29.6697 24.4641C30.8382 26.691 31.4225 29.2524 31.4228 32.1481C31.457 34.1704 31.1494 36.184 30.5129 38.1038C29.9636 39.7299 29.1214 41.2417 28.0279 42.5647C27.0095 43.7831 25.8037 44.8317 24.4558 45.6712C23.1366 46.4915 21.7001 47.1058 20.1957 47.493C18.7324 47.8765 17.2264 48.0727 15.7137 48.0767H12.0594L11.3777 48.0748L10.7154 48.071L10.0729 48.0656L9.45007 48.058L8.71022 48.0457L8.0596 48.0308L7.60699 48.0166L7.21477 48.0008L7.04123 47.9924L6.88293 47.9834C6.70531 47.9834 6.61637 47.8276 6.61664 47.5161V47.5159ZM12.7404 23.0391V42.3778C13.0658 42.3778 13.3614 42.3854 13.628 42.4012L14.1704 42.4325L14.4489 42.4477C14.6896 42.4616 14.9575 42.4695 15.2532 42.4708L15.4031 42.4711C16.7478 42.489 18.085 42.2676 19.3525 41.8172C20.502 41.4032 21.5417 40.7322 22.3924 39.8553C23.2663 38.9329 23.9321 37.8338 24.3448 36.6321C24.8229 35.2346 25.0556 33.765 25.0327 32.2882C25.0604 30.8967 24.8349 29.5117 24.3671 28.2009C23.964 27.0876 23.307 26.0836 22.4481 25.2686C21.5891 24.4537 20.552 23.8502 19.4191 23.5062C18.2498 23.1444 17.0339 22.9556 15.81 22.9458L15.2926 22.9466L14.8906 22.9502L14.6431 22.954L14.4113 22.9594L14.1956 22.9657L13.9419 22.9758L13.6228 22.9904L13.1079 23.0176L12.7407 23.0394L12.7404 23.0391ZM57.4015 47.9875H51.9713C51.9083 47.9961 51.8442 47.99 51.784 47.9698C51.7237 47.9495 51.669 47.9157 51.6239 47.8708C51.55 47.7627 51.4915 47.6448 51.4501 47.5205L51.2393 46.6204L51.1033 46.0359L50.9075 45.1824L50.7198 44.3566L50.5417 43.5585L50.3722 42.7882L50.16 41.8047L49.8608 40.3816L49.5018 38.6446L49.2668 37.4834L48.9594 35.9289L48.7364 34.7729L48.5759 33.9161L48.4562 33.2593L48.398 32.9331L48.3183 32.4718L48.2699 32.1827L48.2256 31.9085L48.1663 31.5253L48.1486 31.405H48.1051C47.8244 32.6401 47.5566 33.878 47.3016 35.1187C47.0525 36.3295 46.7845 37.5364 46.4978 38.739L46.1736 40.0878L45.8216 41.5321L45.4422 43.0717L45.1185 44.3721L44.6888 46.0832L44.3256 47.5205C44.2674 47.8322 44.1086 47.9875 43.8477 47.9875H38.4175C38.2734 48.003 38.1283 47.9702 38.0049 47.8942C37.914 47.8029 37.8469 47.6906 37.8096 47.5673L32.1621 25.1458C32.075 24.8969 32.1912 24.7723 32.5097 24.772H37.9831C38.244 24.772 38.3884 24.8653 38.4175 25.0522L38.7412 26.4867L38.9253 27.3101L39.2713 28.8727L39.6369 30.5542L39.873 31.6621L40.0215 32.3731L40.1156 32.8319L40.2059 33.278L40.2921 33.7121L40.414 34.3399L40.5272 34.9397L40.5976 35.324L40.664 35.6961L40.7565 36.2311L41.0839 38.1841L41.3062 39.4774L41.5349 40.7972L41.6758 41.635H41.7629C41.8012 41.2555 41.8581 40.878 41.9328 40.5042L42.0019 40.1732L42.2307 39.0376L42.5166 37.5917L42.6281 37.0406L42.8343 36.0459L43.5102 32.8627L43.8404 31.2856L44.0071 30.4854L44.1132 29.9909L44.2264 29.4828L44.2851 29.2236L44.4081 28.6951L44.5373 28.153L44.673 27.5973L44.8152 27.028L44.964 26.4454L45.1196 25.8492L45.2814 25.2391C45.2926 25.1085 45.3296 24.9815 45.3902 24.8653C45.4335 24.8033 45.542 24.772 45.7158 24.772H51.4066C51.5807 24.772 51.6813 24.8817 51.7107 25.099L51.8432 25.6702L52.0341 26.5033L52.1565 27.0427L52.3894 28.0831L52.6067 29.0724L52.808 30.0108L52.9489 30.681L53.4912 33.3177L53.729 34.4901L53.8179 34.9318L53.9071 35.3852L53.9914 35.8226L54.07 36.2436L54.1073 36.4482L54.178 36.8453L54.243 37.2261L54.3029 37.5911L54.3573 37.9398L54.4598 38.6239L54.5354 39.1059L54.5847 39.4086L54.6336 39.6964L54.6812 39.9692L54.7519 40.3503C54.8498 40.8367 54.9223 41.3279 54.969 41.8218H55.056C55.1882 41.2797 55.309 40.659 55.4175 39.9592L55.4765 39.5699L55.5402 39.1638L55.6101 38.7409L55.6863 38.3011C55.6993 38.2263 55.7126 38.1509 55.7265 38.0747L55.8117 37.6096L56.0959 36.1125L56.2471 35.3074L56.4571 34.1745L56.555 33.6422L56.6475 33.154L56.7454 32.6508L56.8482 32.1326L56.957 31.5995L57.0707 31.0514L57.1901 30.4884L57.3147 29.9104L57.454 29.2755L57.5981 28.6255L57.748 27.9602L57.9031 27.2793L58.0635 26.5836L58.2295 25.8723L58.4008 25.1458C58.4585 24.8969 58.5888 24.7723 58.792 24.772H63.8745C64.1351 24.772 64.2363 24.9121 64.1786 25.1923L57.9229 47.567C57.8853 47.6857 57.8264 47.7966 57.7491 47.8942C57.6499 47.9696 57.5251 48.0031 57.4015 47.9875Z" fill="#FF61F6"/>
</g>
<defs>
<clipPath id="clip0_303_136">
<rect width="69.64" height="68" fill="white"/>
</clipPath>
</defs>
</svg>
