<svg width="45" height="68" viewBox="0 0 45 68" fill="none" xmlns="http://www.w3.org/2000/svg">
<g clip-path="url(#clip0_303_98)">
<path d="M11.2516 68.0002C17.4607 68.0002 22.5 62.9228 22.5 56.6668V45.3335H11.2516C5.04255 45.3335 0.0032959 50.4108 0.0032959 56.6668C0.0032959 62.9228 5.04255 68.0002 11.2516 68.0002Z" fill="#0ACF83"/>
<path d="M0.0032959 33.9998C0.0032959 27.7438 5.04255 22.6665 11.2516 22.6665H22.5V45.3332H11.2516C5.04255 45.3332 0.0032959 40.2558 0.0032959 33.9998Z" fill="#A259FF"/>
<path d="M0.0032959 11.3333C0.0032959 5.07733 5.04255 0 11.2516 0H22.5V22.6667H11.2516C5.04255 22.6667 0.0032959 17.5893 0.0032959 11.3333Z" fill="#F24E1E"/>
<path d="M22.5 0H33.7483C39.9574 0 44.9967 5.07733 44.9967 11.3333C44.9967 17.5893 39.9574 22.6667 33.7483 22.6667H22.5V0Z" fill="#FF7262"/>
<path d="M44.9967 33.9998C44.9967 40.2558 39.9574 45.3332 33.7483 45.3332C27.5393 45.3332 22.5 40.2558 22.5 33.9998C22.5 27.7438 27.5393 22.6665 33.7483 22.6665C39.9574 22.6665 44.9967 27.7438 44.9967 33.9998Z" fill="#1ABCFE"/>
</g>
<defs>
<clipPath id="clip0_303_98">
<rect width="45" height="68" fill="white"/>
</clipPath>
</defs>
</svg>
