<svg width="56" height="63" viewBox="0 0 56 63" fill="none" xmlns="http://www.w3.org/2000/svg">
<g clip-path="url(#clip0_303_72)">
<path d="M5.27944 56.4924L0.223694 0.262695H55.7762L50.7137 56.4835L27.9662 62.7377L5.27944 56.4924Z" fill="#E44F26"/>
<path d="M28 57.9584L46.3825 52.9046L50.707 4.86133H28V57.9584Z" fill="#F1662A"/>
<path d="M28 25.7146H18.7975L18.163 18.6527H28V11.7559H10.5625L10.729 13.6078L12.4368 32.6114H28V25.7146ZM28 43.6248L27.9685 43.6337L20.224 41.5609L19.729 36.0609H12.7472L13.7215 46.8869L27.9685 50.8094L28 50.8005V43.6248Z" fill="#EBEBEB"/>
<path d="M27.9752 25.7146V32.6114H36.5387L35.7332 41.5564L27.9752 43.6315V50.8072L42.2335 46.8869L42.337 45.7222L43.9705 27.5665L44.1415 25.7146H27.9752ZM27.9752 11.7559V18.6527H44.7737L44.9132 17.1042L45.2305 13.6078L45.397 11.7559H27.9752Z" fill="white"/>
</g>
<defs>
<clipPath id="clip0_303_72">
<rect width="56" height="63" fill="white"/>
</clipPath>
</defs>
</svg>
