<svg width="70" height="68" viewBox="0 0 70 68" fill="none" xmlns="http://www.w3.org/2000/svg">
<g clip-path="url(#clip0_303_106)">
<path d="M58.076 0H11.564C5.17962 0 0.00402832 5.17559 0.00402832 11.56V56.3312C0.00402832 62.7156 5.17962 67.8912 11.564 67.8912H58.076C64.4604 67.8912 69.636 62.7156 69.636 56.3312V11.56C69.636 5.17559 64.4604 0 58.076 0Z" fill="#330000"/>
<path d="M33.7467 40.7431H22.9564L20.7608 47.5629C20.731 47.6873 20.6586 47.7974 20.5563 47.8742C20.454 47.9509 20.328 47.9896 20.2003 47.9835H14.735C14.4235 47.9835 14.3144 47.8121 14.408 47.4694L23.7504 20.5637C23.8437 20.2835 23.9373 19.9645 24.0306 19.6062C24.153 18.9828 24.2155 18.3496 24.2174 17.7145C24.2111 17.6701 24.2151 17.6248 24.2293 17.5822C24.2435 17.5396 24.2674 17.5009 24.2991 17.4691C24.3308 17.4374 24.3695 17.4135 24.4121 17.3993C24.4546 17.385 24.4999 17.3809 24.5444 17.3873H31.9716C32.1892 17.3873 32.3138 17.4653 32.3453 17.6212L42.9487 47.5162C43.0423 47.8279 42.9487 47.9837 42.6685 47.9835H36.5959C36.4916 47.995 36.3867 47.9682 36.3007 47.908C36.2148 47.8479 36.1537 47.7585 36.1288 47.6565L33.7467 40.7431ZM24.6379 34.8575H32.0184L31.9131 34.5102L31.7442 33.9602L31.6237 33.574L31.4314 32.9658L31.0226 31.6855L30.663 30.5504L29.7292 27.5938C29.4968 26.8588 29.2738 26.1209 29.0601 25.3803L28.8893 24.7791L28.6896 24.0684L28.385 22.9668L28.3279 22.7593H28.2814C28.0477 23.8805 27.763 24.9905 27.4284 26.0858L26.7353 28.3151L26.354 29.5468L25.9691 30.7936C25.8995 31.0188 25.8304 31.2416 25.761 31.4616L25.5543 32.1139L25.3487 32.7509L25.1441 33.3722L24.9407 33.9779C24.8732 34.1773 24.8058 34.3739 24.7386 34.5681L24.6379 34.8575ZM49.2542 22.3387C48.7778 22.3579 48.3027 22.2762 47.86 22.0992C47.4173 21.9221 47.017 21.6535 46.6852 21.3111C46.3543 20.9539 46.0972 20.5347 45.9289 20.0778C45.7605 19.6208 45.6841 19.1351 45.7041 18.6485C45.6871 18.1668 45.772 17.687 45.9531 17.2403C46.1342 16.7937 46.4075 16.3902 46.7551 16.0564C47.4256 15.4127 48.3185 15.0525 49.248 15.0508L49.3475 15.0519C50.4687 15.0519 51.3486 15.3864 51.987 16.0561C52.3092 16.404 52.5596 16.8121 52.7239 17.257C52.8882 17.7018 52.9631 18.1747 52.9444 18.6485C52.964 19.137 52.8852 19.6245 52.7127 20.0819C52.5402 20.5394 52.2775 20.9575 51.9402 21.3114C51.5997 21.6471 51.1955 21.9112 50.7513 22.0882C50.3072 22.2653 49.8321 22.3516 49.354 22.3423L49.2542 22.3387ZM46.031 47.5162V25.1882C46.031 24.9081 46.155 24.7677 46.4047 24.7677H52.1505C52.3993 24.7677 52.5239 24.9078 52.5242 25.1882V47.5162C52.5242 47.8279 52.3996 47.9837 52.1505 47.9835H46.4515C46.1861 47.9835 46.0462 47.8436 46.0324 47.564L46.031 47.5162Z" fill="#FF9A00"/>
</g>
<defs>
<clipPath id="clip0_303_106">
<rect width="69.64" height="68" fill="white"/>
</clipPath>
</defs>
</svg>
