<svg width="70" height="68" viewBox="0 0 70 68" fill="none" xmlns="http://www.w3.org/2000/svg">
<g clip-path="url(#clip0_303_111)">
<path d="M58.076 0H11.564C5.17962 0 0.00402832 5.17559 0.00402832 11.56V56.3312C0.00402832 62.7156 5.17962 67.8912 11.564 67.8912H58.076C64.4604 67.8912 69.636 62.7156 69.636 56.3312V11.56C69.636 5.17559 64.4604 0 58.076 0Z" fill="#49021F"/>
<path d="M25.2916 17.7608V47.516C25.2916 47.8277 25.1515 47.9833 24.8711 47.9833H19.2189C18.9695 47.9833 18.8449 47.8274 18.8455 47.516V17.7608C18.8455 17.5119 18.9855 17.3873 19.2657 17.3871H24.9179C24.9654 17.3803 25.0138 17.384 25.0598 17.3979C25.1057 17.4118 25.1481 17.4355 25.1839 17.4674C25.2198 17.4994 25.2483 17.5387 25.2674 17.5827C25.2865 17.6268 25.2958 17.6745 25.2946 17.7224L25.2916 17.7608ZM42.315 48.4473L42.0142 48.4503C39.8642 48.483 37.7339 48.0363 35.7783 47.1425C33.9564 46.2993 32.4334 44.9228 31.4108 43.1952C30.3774 41.4792 29.8484 39.3402 29.8234 36.7788L29.8226 36.5856C29.8051 34.4418 30.353 32.3311 31.411 30.4665C32.4716 28.618 34.0185 27.0956 35.8835 26.0647L36.0353 25.982C38.059 24.8611 40.5037 24.3005 43.369 24.3005L43.4294 24.3008L43.5635 24.3038L43.7152 24.3097L43.8847 24.3184L44.0716 24.3301L44.2758 24.3451L44.7374 24.3829L44.8636 24.3938V15.192C44.8636 14.9744 44.9572 14.8648 45.1438 14.8648H51.0296C51.0676 14.8594 51.1065 14.8628 51.1429 14.875C51.1794 14.8871 51.2126 14.9076 51.2398 14.9348C51.2669 14.962 51.2874 14.9951 51.2996 15.0316C51.3117 15.0681 51.3152 15.1069 51.3097 15.145V42.7516C51.3117 43.3284 51.3351 43.9049 51.3799 44.4799L51.424 45.0821L51.4629 45.6427L51.4966 46.1614C51.5024 46.2584 51.4787 46.355 51.4287 46.4383C51.3788 46.5217 51.3048 46.5881 51.2165 46.6287C49.698 47.2619 48.1165 47.7316 46.4986 48.0298C45.1181 48.2846 43.7189 48.4243 42.3153 48.4473H42.315ZM44.8636 42.658V29.9059C44.6112 29.8375 44.3534 29.7907 44.093 29.7658C43.7748 29.7338 43.4552 29.7182 43.1353 29.719C42.0016 29.7079 40.8815 29.9638 39.8656 30.4665C38.876 30.9584 38.031 31.6988 37.4133 32.6153C36.7746 33.5493 36.4553 34.7796 36.4556 36.3055C36.4328 37.3237 36.5991 38.3372 36.946 39.2948C37.2283 40.0664 37.6745 40.7677 38.254 41.3503C38.8088 41.8862 39.4804 42.2859 40.216 42.518C40.9929 42.7695 41.8049 42.8958 42.6215 42.892C43.0573 42.892 43.462 42.8762 43.836 42.8449C44.1343 42.8225 44.43 42.7733 44.7195 42.698L44.8636 42.658Z" fill="#FF3366"/>
</g>
<defs>
<clipPath id="clip0_303_111">
<rect width="69.64" height="68" fill="white"/>
</clipPath>
</defs>
</svg>
