<svg width="68" height="68" viewBox="0 0 68 68" fill="none" xmlns="http://www.w3.org/2000/svg">
<g clip-path="url(#clip0_303_116)">
<path d="M0 0H68V68H0V0Z" fill="#FF0066"/>
<path d="M23.1391 21.882C25.2899 21.8507 27.0112 20.0872 26.9904 17.9362C26.9695 15.7849 25.2145 14.0551 23.0632 14.0655C20.9119 14.0758 19.1736 15.8223 19.1734 17.9736C19.1751 18.4912 19.2793 19.0034 19.4799 19.4805C19.6806 19.9577 19.9737 20.3904 20.3423 20.7538C20.711 21.1171 21.1479 21.4039 21.6279 21.5976C22.108 21.7913 22.6216 21.888 23.1391 21.8823V21.882ZM14.9165 42.8072C14.6914 43.7696 14.5738 44.754 14.5658 45.7423C14.5658 49.183 16.4316 51.4676 20.3974 51.4676C23.6858 51.4676 26.354 49.5147 28.2718 46.3596L27.0994 51.0652H33.6273L37.362 36.1052C38.2949 32.3134 40.1009 30.347 42.8427 30.347C44.9996 30.347 46.3407 31.6878 46.3407 33.9047C46.3513 34.6153 46.253 35.3234 46.0496 36.0045L44.1264 42.8834C43.8514 43.8307 43.7141 44.8127 43.7187 45.7992C43.7187 49.0632 45.6418 51.457 49.6645 51.457C53.1054 51.457 55.8471 49.2427 57.3623 43.9361L54.7971 42.9432C53.5134 46.5009 52.4065 47.1427 51.5331 47.1427C50.66 47.1427 50.1893 46.561 50.1893 45.3938C50.2146 44.7815 50.3123 44.1743 50.4805 43.5849L52.3491 36.8805C52.7687 35.5021 52.985 34.0698 52.9911 32.6289C52.9911 27.6131 49.9582 24.9967 46.2836 24.9967C42.8427 24.9967 39.3449 28.1 37.5958 31.367L38.8769 25.5025H28.908L27.5074 30.6705H32.1749L29.3027 42.1598C27.0449 47.1756 22.8998 47.2572 22.3803 47.1403C21.526 46.9469 20.982 46.6234 20.982 45.508C21.007 44.6052 21.144 43.709 21.39 42.8398L25.7638 25.4889H14.688L13.29 30.6569H17.8949L14.9165 42.8072Z" fill="white"/>
</g>
<defs>
<clipPath id="clip0_303_116">
<rect width="68" height="68" fill="white"/>
</clipPath>
</defs>
</svg>
