<svg width="68" height="68" viewBox="0 0 68 68" fill="none" xmlns="http://www.w3.org/2000/svg">
<g clip-path="url(#clip0_303_158)">
<path d="M31.9232 4.6548e-05C19.2412 -0.0424535 -5.15662 29.0304 3.95821 36.7314L6.19654 38.6269C5.59241 40.2468 5.37885 41.9863 5.57321 43.7042C5.81121 46.0842 7.04088 48.3622 9.02988 50.1245C10.9169 51.7962 13.3989 52.8559 15.8072 52.8559C19.7909 62.0359 28.8972 67.6686 39.5675 67.9859C51.0142 68.3259 60.6277 62.9539 64.6539 53.3036C64.9174 52.6236 66.0365 49.5749 66.0365 46.8804C66.0365 44.1717 64.5065 43.0497 63.529 43.0497C63.5007 42.9449 63.308 42.2394 63.0417 41.3894C62.7782 40.5394 62.5034 39.9444 62.5034 39.9444C63.5659 38.3492 63.5857 36.9269 63.444 36.1194C63.2939 35.1192 62.8774 34.2692 62.0387 33.3881C61.2 32.5069 59.483 31.603 57.0719 30.9287L55.8082 30.5774C55.8025 30.5235 55.7402 27.5939 55.6864 26.3359C55.6467 25.4292 55.5674 24.0069 55.1282 22.61C54.6012 20.7174 53.6889 19.0599 52.547 18.0002C55.6977 14.7362 57.664 11.1379 57.6584 8.05238C57.6499 2.11655 50.3597 0.320213 41.378 4.04038L39.474 4.84788C38.3119 3.70646 37.1484 2.56651 35.9834 1.42805C34.8614 0.450547 33.4815 0.00571322 31.9232 4.6548e-05ZM32.13 2.47355C32.6004 2.47355 33.0424 2.52738 33.4475 2.63788C34.289 2.87588 37.0742 6.10588 37.0742 6.10588C37.0742 6.10588 31.9005 8.97605 27.1009 12.9795C20.6409 17.9577 15.7534 25.194 12.8294 33.0452C10.5315 33.4929 8.50571 34.7962 7.26754 36.5954C6.52804 35.9777 5.14821 34.7821 4.90454 34.3174C2.92688 30.5604 7.06071 23.2617 9.95071 19.1392C16.5297 9.74671 26.5484 2.45655 32.13 2.47355ZM41.4404 11.747C41.5537 11.7414 41.6104 11.8887 41.5197 11.9567C41.1145 12.2684 40.6725 12.6934 40.3495 13.1297C40.3371 13.1464 40.3294 13.1661 40.3274 13.1868C40.3254 13.2076 40.3291 13.2284 40.3382 13.2472C40.3473 13.2659 40.3613 13.2818 40.3788 13.293C40.3963 13.3043 40.4166 13.3105 40.4374 13.311C42.3045 13.3224 44.9339 13.9769 46.648 14.9374C46.7642 15.0025 46.682 15.2292 46.5517 15.198C43.9592 14.603 39.712 14.1525 35.3034 15.2264C31.365 16.1897 28.3617 17.6715 26.1687 19.2667C26.0554 19.346 25.925 19.2015 26.0129 19.0967C28.5515 16.1642 31.6767 13.6142 34.476 12.1834C34.5724 12.1324 34.6744 12.2372 34.6234 12.3307C34.3995 12.7359 33.9717 13.5972 33.8357 14.2517C33.8159 14.3509 33.9264 14.4302 34.0114 14.3707C35.7539 13.1807 38.7827 11.9114 41.4404 11.747ZM50.0055 20.8279L50.1642 20.8307C50.6244 20.8489 51.071 20.9918 51.4562 21.2444C52.9692 22.2502 53.1845 24.6897 53.2639 26.4719C53.3064 27.4919 53.431 29.954 53.4735 30.6595C53.5699 32.2774 53.9949 32.504 54.8534 32.7874C55.335 32.9489 55.7884 33.065 56.4485 33.252C58.4489 33.813 59.636 34.3854 60.3869 35.1164C60.8317 35.5754 61.0385 36.0599 61.1037 36.5245C61.3389 38.2472 59.7664 40.3779 55.6014 42.3074C51.0482 44.421 45.5232 44.9565 41.7067 44.5315L40.3722 44.3814C37.3179 43.9705 35.5754 47.9146 37.4085 50.6175C38.59 52.3601 41.8059 53.4934 45.0245 53.4934C52.4025 53.4934 58.072 50.3456 60.1829 47.6227C60.2437 47.5455 60.3005 47.4651 60.3529 47.3819C60.4549 47.2261 60.3699 47.1411 60.2395 47.2289C58.5169 48.4076 50.8612 53.091 42.6729 51.68C42.6729 51.68 41.6784 51.5186 40.7689 51.1644C40.0464 50.8811 38.5362 50.1897 38.352 48.6399C44.9622 50.6799 49.1215 48.7504 49.1215 48.7504C49.1601 48.7329 49.1922 48.7039 49.2136 48.6674C49.2349 48.6308 49.2443 48.5885 49.2405 48.5464C49.2381 48.5214 49.2307 48.4972 49.2188 48.4751C49.2069 48.453 49.1907 48.4334 49.1712 48.4176C49.1517 48.4018 49.1292 48.39 49.1052 48.3829C49.0811 48.3759 49.0558 48.3736 49.0309 48.3764C49.0309 48.3764 43.6164 49.1782 38.4965 47.3054C39.0547 45.4921 40.5365 46.1494 42.7749 46.3279C46.2574 46.5343 49.75 46.157 53.108 45.2115C55.4257 44.5485 58.4687 43.2367 60.8345 41.3695C61.6307 43.1205 61.9112 45.05 61.9112 45.05C61.9112 45.05 62.5317 44.9367 63.0445 45.2569C63.5347 45.5572 63.8917 46.1805 63.648 47.7927C63.1494 50.8046 61.8687 53.2497 59.7182 55.4994C58.3736 56.9531 56.7736 58.1477 54.9979 59.0241C54.0345 59.5341 53.0032 59.9704 51.918 60.3274C43.8062 62.9766 35.5017 60.0639 32.8242 53.8107C32.6073 53.3325 32.4283 52.838 32.2887 52.3317C31.1469 48.2092 32.1187 43.265 35.1447 40.1512C35.3289 39.9529 35.5187 39.7177 35.5187 39.4259C35.5187 39.1794 35.3629 38.9187 35.2297 38.7374C34.17 37.1989 30.5009 34.5837 31.2375 29.5177C31.7674 25.8797 34.9492 23.3155 37.9157 23.4685C38.1679 23.4799 38.4172 23.4969 38.6694 23.511C39.9529 23.5875 41.0777 23.7519 42.1345 23.7944C43.9054 23.8737 45.4977 23.6159 47.3847 22.0434C48.0222 21.5135 48.5322 21.0517 49.3964 20.9072C49.4757 20.893 49.657 20.8279 50.0055 20.8279ZM50.0679 27.0045C50.0109 27.0052 49.9541 27.0099 49.8979 27.0187C48.9487 27.1717 48.9147 28.3447 49.2519 29.9654C49.4445 30.872 49.7817 31.6512 50.1585 32.1329C50.6544 32.0762 51.1304 32.0705 51.5695 32.1329C51.8217 31.552 51.8642 30.5547 51.6375 29.4639C51.3202 27.948 50.898 26.9932 50.0679 27.0045ZM39.6979 31.3849C38.6648 31.3806 37.6569 31.704 36.8192 32.3085C36.3659 32.64 35.938 33.1019 35.9975 33.3795C36.0202 33.4702 36.0854 33.5382 36.2469 33.558C36.618 33.6005 37.9242 32.9432 39.4259 32.8497C40.4855 32.7845 41.3639 33.116 42.041 33.4164C42.7182 33.711 43.1347 33.9065 43.2962 33.7365C43.401 33.6289 43.3699 33.4249 43.2084 33.1585C42.874 32.6145 42.1884 32.062 41.4574 31.7504C40.9011 31.5124 40.3029 31.3882 39.6979 31.3849ZM51.2635 33.6799C50.779 33.6714 50.3767 34.2069 50.3654 34.8699C50.354 35.5385 50.7365 36.0882 51.2239 36.0939C51.7112 36.1024 52.1135 35.5697 52.1249 34.9039C52.1362 34.2352 51.7509 33.6884 51.2635 33.6799ZM41.1202 34.1672C40.9785 34.1672 40.8312 34.1729 40.681 34.1899C39.7999 34.3316 39.3125 34.6205 39.0009 34.8897C38.7345 35.122 38.5702 35.3799 38.5702 35.5612C38.5698 35.5894 38.5751 35.6173 38.5856 35.6434C38.5961 35.6695 38.6117 35.6933 38.6314 35.7133C38.6512 35.7333 38.6748 35.7492 38.7007 35.7601C38.7267 35.771 38.7546 35.7766 38.7827 35.7765C38.981 35.7765 39.4287 35.598 39.4287 35.598C40.3329 35.2572 41.3099 35.1557 42.2649 35.3034C42.7097 35.3544 42.9165 35.3799 43.0157 35.2297C43.044 35.1844 43.078 35.0909 42.9874 34.9464C42.8089 34.6545 42.109 34.1842 41.1202 34.1672ZM47.5235 35.3005C47.1637 35.3005 46.8577 35.445 46.7217 35.7199C46.5092 36.1562 46.8209 36.7484 47.4187 37.0402C48.0137 37.3349 48.6739 37.2187 48.892 36.7852C49.1045 36.346 48.7929 35.7539 48.195 35.462C47.9866 35.3569 47.757 35.3036 47.5235 35.3005ZM14.5577 35.3685C14.6937 35.3685 14.8354 35.3685 14.9799 35.377C17.0482 35.4904 20.0969 37.077 20.7939 41.582C21.4087 45.577 20.4312 49.6372 16.6884 50.2776C16.3399 50.3342 15.9857 50.3597 15.6287 50.3512C12.172 50.2577 8.43488 47.1439 8.06371 43.452C7.65288 39.372 9.73821 36.2327 13.43 35.4875C13.7615 35.4195 14.144 35.3742 14.5577 35.3685ZM14.3594 37.995C13.9097 37.9911 13.4641 38.0807 13.051 38.2583C12.6378 38.4358 12.2661 38.6974 11.9595 39.0264C10.8829 40.2107 10.7157 41.8257 10.9225 42.398C10.999 42.6049 11.1209 42.6644 11.2059 42.6757C11.3872 42.6984 11.6592 42.5652 11.8292 42.1091C11.8464 42.0603 11.8624 42.0112 11.8774 41.9617C11.9804 41.5948 12.1299 41.2425 12.3222 40.9134C12.4627 40.6985 12.6441 40.5134 12.8562 40.3687C13.0683 40.224 13.3068 40.1225 13.5582 40.0702C13.8095 40.0178 14.0687 40.0155 14.3209 40.0634C14.5732 40.1114 14.8134 40.2086 15.028 40.3495C15.7817 40.8425 16.0735 41.7662 15.7505 42.6445C15.5862 43.1007 15.3142 43.9734 15.3737 44.6874C15.4955 46.1352 16.3852 46.7189 17.187 46.7784C17.9634 46.8067 18.5074 46.3732 18.6462 46.0531C18.7284 45.8632 18.6604 45.7499 18.615 45.6989C18.4932 45.5487 18.2949 45.5941 18.105 45.6394C17.9572 45.6793 17.8049 45.7002 17.6517 45.7017C17.489 45.7062 17.3277 45.6703 17.1823 45.5971C17.0369 45.5239 16.912 45.4158 16.8187 45.2824C16.5977 44.9424 16.6119 44.4324 16.8555 43.8544C16.8867 43.775 16.9264 43.69 16.9689 43.5937C17.3599 42.721 18.0115 41.2562 17.2805 39.8622C16.728 38.8139 15.827 38.1565 14.7475 38.0205C14.6179 38.0032 14.4873 37.9937 14.3565 37.9922L14.3594 37.995Z" fill="#222222"/>
</g>
<defs>
<clipPath id="clip0_303_158">
<rect width="68" height="68" fill="white"/>
</clipPath>
</defs>
</svg>
