<svg width="68" height="68" viewBox="0 0 68 68" fill="none" xmlns="http://www.w3.org/2000/svg">
<path d="M14.7695 14.1305C16.6735 15.6764 17.3853 15.5585 20.9621 15.3182L54.6583 13.2964C55.3746 13.2964 54.7807 12.5846 54.5405 12.4668L48.9418 8.4185C47.8719 7.58437 46.4439 6.63237 43.7058 6.87263L11.0749 9.25263C9.88714 9.3705 9.64687 9.96437 10.1229 10.4404L14.7695 14.1305ZM16.7914 21.9822V57.4374C16.7914 59.3414 17.7434 60.0577 19.8877 59.9398L56.925 57.7956C59.0647 57.6777 59.305 56.3676 59.305 54.8217V19.6022C59.305 18.0609 58.7111 17.2222 57.401 17.3401L18.6954 19.6022C17.2674 19.7201 16.7914 20.4364 16.7914 21.9822ZM53.3527 23.8862C53.5885 24.9561 53.3527 26.026 52.2783 26.1484L50.4922 26.502V52.6774C48.9463 53.5116 47.5138 53.9921 46.3215 53.9921C44.4175 53.9921 43.9415 53.3937 42.5135 51.6076L30.8402 33.2838V51.0137L34.5349 51.8478C34.5349 51.8478 34.5349 53.9876 31.5565 53.9876L23.3421 54.4636C23.1018 53.9876 23.3421 52.7998 24.1762 52.5596L26.3159 51.9702V28.5238L23.3466 28.2881C23.1063 27.2182 23.7002 25.6724 25.3685 25.55L34.1813 24.9606L46.3306 43.5201V27.1004L43.2343 26.7422C42.9941 25.4321 43.9461 24.4801 45.1383 24.3622L53.3573 23.8862H53.3527ZM8.33674 6.0385L42.2778 3.54063C46.4439 3.17797 47.5138 3.42277 50.1341 5.32677L60.9687 12.9428C62.7594 14.2484 63.3533 14.6065 63.3533 16.0345V57.7956C63.3533 60.4158 62.4013 61.9662 59.0647 62.1974L19.6519 64.5774C17.1495 64.6998 15.9573 64.3417 14.6471 62.6734L6.66847 52.3238C5.24047 50.4198 4.64661 48.9918 4.64661 47.3236V10.2001C4.64661 8.06037 5.59861 6.27423 8.33674 6.0385Z" fill="black"/>
</svg>
