<svg width="70" height="68" viewBox="0 0 70 68" fill="none" xmlns="http://www.w3.org/2000/svg">
<g clip-path="url(#clip0_303_121)">
<path d="M58.076 0H11.564C5.17962 0 0.00402832 5.17559 0.00402832 11.56V56.3312C0.00402832 62.7156 5.17962 67.8912 11.564 67.8912H58.076C64.4604 67.8912 69.636 62.7156 69.636 56.3312V11.56C69.636 5.17559 64.4604 0 58.076 0Z" fill="#001E36"/>
<path d="M15.6832 47.6097V17.761C15.6832 17.5434 15.7768 17.434 15.9637 17.434L16.2593 17.4332L16.7647 17.4278L17.467 17.4139L19.8198 17.3641L22.3426 17.3173C23.2299 17.3021 24.1095 17.2939 24.9815 17.2939C27.3479 17.2939 29.3409 17.5899 30.9607 18.1815C32.4217 18.6757 33.7542 19.4895 34.8611 20.5637C35.7995 21.4948 36.5246 22.6184 36.9865 23.857C37.4235 25.0623 37.6449 26.3351 37.6407 27.6172C37.6407 30.109 37.0643 32.1642 35.9121 33.7831C34.7852 35.3626 33.2133 36.5705 31.3969 37.2528L31.2411 37.3099C29.3444 38.0174 27.244 38.273 24.9405 38.2891L24.5825 38.2902L24.0513 38.2874L23.7834 38.2836L23.4847 38.2766L23.3047 38.2695L23.1953 38.2638L22.9263 38.254L22.5975 38.2472L22.1024 38.2437L21.9923 38.2434V47.5629C22.0005 47.6201 21.9952 47.6783 21.977 47.7331C21.9588 47.7878 21.928 47.8376 21.8872 47.8784C21.8464 47.9192 21.7966 47.9499 21.7419 47.9682C21.6871 47.9864 21.6289 47.9916 21.5718 47.9834H16.0104C15.792 47.9834 15.6832 47.8594 15.6832 47.6097ZM21.9925 23.0394V32.7748C22.3653 32.8049 22.7392 32.8205 23.1132 32.8216H24.6549C25.7178 32.818 26.7745 32.6598 27.7919 32.3519L27.9948 32.2885C28.9203 32.0136 29.7473 31.4784 30.3772 30.7468C30.9626 30.0565 31.2658 29.1053 31.2868 27.893L31.2881 27.7572C31.3126 26.8537 31.0776 25.962 30.6106 25.1882C30.1198 24.4398 29.4103 23.8608 28.5787 23.5298C27.4929 23.1078 26.3331 22.9093 25.1687 22.9461L24.5763 22.9477L24.2025 22.951L23.8459 22.9556L23.3427 22.9654L22.9755 22.9758L22.7849 22.9828L22.53 22.9948L22.313 23.0081L22.1892 23.0179L22.0823 23.0282L22.0352 23.0337L21.9925 23.0394ZM55.7015 31.0046C54.8866 30.5859 54.0223 30.2714 53.1289 30.0684L52.9222 30.0238C51.9393 29.7983 50.936 29.674 49.9278 29.6531L49.6759 29.6501C49.0849 29.6341 48.4947 29.7049 47.9242 29.8603C47.561 29.9411 47.2382 30.1479 47.013 30.4441C46.8608 30.681 46.7798 30.9567 46.7796 31.2383C46.7882 31.5114 46.8866 31.7741 47.0598 31.9855C47.3077 32.2754 47.6057 32.5184 47.9397 32.7027L48.0409 32.7563C48.7069 33.1149 49.3931 33.4346 50.0961 33.7138C51.6638 34.2386 53.1618 34.9523 54.5569 35.8392C55.5075 36.4391 56.2941 37.2658 56.8461 38.245C57.3101 39.1721 57.5425 40.1978 57.5234 41.2343C57.5513 42.6032 57.1601 43.948 56.4022 45.0883C55.5908 46.2456 54.4638 47.1454 53.1556 47.6804C51.7855 48.2826 50.1029 48.5935 48.1081 48.6139L47.9008 48.615C46.6642 48.6275 45.4292 48.5193 44.2136 48.2919L43.9535 48.2413C42.93 48.0536 41.9337 47.7398 40.9874 47.307C40.8923 47.2579 40.8119 47.1844 40.7545 47.0941C40.697 47.0038 40.6646 46.8998 40.6604 46.7929V41.7016C40.6548 41.6522 40.6628 41.6022 40.6834 41.5569C40.704 41.5116 40.7365 41.4728 40.7774 41.4446C40.8175 41.4219 40.8636 41.412 40.9094 41.4162C40.9553 41.4203 40.9988 41.4384 41.0342 41.4679C42.1517 42.1269 43.3652 42.6076 44.6308 42.8927C45.7465 43.1724 46.8908 43.3213 48.0409 43.3366C49.1305 43.3366 49.9324 43.1962 50.4465 42.9161C50.6786 42.8098 50.875 42.6385 51.0118 42.423C51.1486 42.2075 51.22 41.9569 51.2173 41.7016C51.2173 41.2974 50.9837 40.9079 50.5166 40.5339C50.3208 40.3772 50.0398 40.2067 49.6743 40.0225L49.4994 39.9366L49.3128 39.8487L49.2148 39.8041L49.0098 39.7133C48.9742 39.6977 48.9385 39.6823 48.9029 39.667L48.6798 39.5735L48.5637 39.5259L48.3227 39.4293L48.1976 39.3803L47.9384 39.2805L47.6672 39.1791C46.2004 38.6686 44.8097 37.9615 43.533 37.077C42.62 36.442 41.8682 35.6022 41.3377 34.6247C40.8784 33.7042 40.6461 32.6872 40.6604 31.6585C40.6578 30.4226 40.9973 29.2101 41.6413 28.1552C42.3757 26.9937 43.4299 26.0689 44.6776 25.4928C46.0477 24.8082 47.7602 24.4655 49.8157 24.465C51.0196 24.4553 52.2223 24.5412 53.4126 24.722C54.2745 24.8313 55.1172 25.0592 55.9167 25.3993C56.0453 25.4363 56.1489 25.5312 56.1968 25.6563C56.2286 25.7703 56.2441 25.8881 56.2436 26.0066V30.7245C56.2504 30.836 56.1968 30.9429 56.1035 31.0046C56.0411 31.0357 55.9723 31.0519 55.9025 31.0519C55.8328 31.0519 55.764 31.0357 55.7015 31.0046Z" fill="#31A8FF"/>
</g>
<defs>
<clipPath id="clip0_303_121">
<rect width="69.64" height="68" fill="white"/>
</clipPath>
</defs>
</svg>
