<svg width="70" height="63" viewBox="0 0 70 63" fill="none" xmlns="http://www.w3.org/2000/svg">
<g clip-path="url(#clip0_303_64)">
<path d="M35 37.6336C38.423 37.6336 41.1979 34.8587 41.1979 31.4357C41.1979 28.0127 38.423 25.2378 35 25.2378C31.577 25.2378 28.8021 28.0127 28.8021 31.4357C28.8021 34.8587 31.577 37.6336 35 37.6336Z" fill="#007ACC"/>
<path d="M35 45.646C27.5505 45.8262 20.1196 44.822 12.985 42.671C9.68927 41.6262 6.61538 39.9804 3.91871 37.8168C2.88968 37.0776 2.03274 36.1246 1.40667 35.0231C0.78061 33.9216 0.400249 32.6977 0.291687 31.4354C0.291687 27.3373 4.79385 23.3211 12.3355 20.6932C19.6608 18.3646 27.3144 17.2361 35 17.3513C42.5831 17.2453 50.1342 18.3535 57.3671 20.6337C60.5411 21.6456 63.5108 23.2118 66.1384 25.2598C67.1498 25.9645 67.9939 26.883 68.6108 27.9502C69.2278 29.0174 69.6025 30.2073 69.7084 31.4354C69.7084 35.6946 64.6756 40.0108 56.5688 42.6933C49.5724 44.7743 42.2983 45.7701 35 45.646ZM35 20.3163C27.6471 20.2181 20.3254 21.2909 13.3098 23.4946C6.36812 25.9168 3.25677 29.229 3.25677 31.428C3.25677 33.7286 6.60117 37.3457 13.9445 39.8571C20.7698 41.9046 27.8764 42.8576 35 42.6809C41.9824 42.8058 48.9427 41.861 55.6391 39.8795C63.2625 37.3532 66.7333 33.7311 66.7333 31.4354C66.6083 30.6476 66.3212 29.8943 65.8902 29.2231C65.4592 28.5518 64.8937 27.9773 64.2294 27.5357C61.8785 25.7188 59.2257 24.3307 56.3927 23.4351C49.4735 21.2628 42.2515 20.2099 35 20.3163Z" fill="#007ACC"/>
<path d="M20.9183 62.3482C19.7618 62.3747 18.6189 62.0941 17.6062 61.535C14.056 59.4872 12.8263 53.5818 14.3163 45.7353C15.9591 38.2261 18.8056 31.0321 22.7455 24.4318C26.4412 17.8102 31.1726 11.8225 36.7602 6.69584C39.2224 4.45146 42.0628 2.6611 45.1497 1.40778C46.2662 0.884523 47.4842 0.613281 48.7172 0.613281C49.9503 0.613281 51.1682 0.884523 52.2847 1.40778C55.9762 3.5349 57.1985 10.0502 55.4754 18.4124C53.7819 25.5141 51.0094 32.3142 47.2545 38.5754C43.6888 45.1189 39.1064 51.0544 33.6786 56.1602C31.127 58.4925 28.1658 60.3325 24.9445 61.5871C23.6549 62.0657 22.2937 62.323 20.9183 62.3482ZM25.3139 25.9044C21.5557 32.2246 18.8275 39.1028 17.2318 46.2807C15.8608 53.5075 17.1773 57.8534 19.0912 58.9591C21.0745 60.107 25.8891 59.0187 31.7349 53.9116C36.9165 49.0201 41.2902 43.3384 44.6935 37.078C48.2906 31.0921 50.9502 24.5908 52.5798 17.8C54.2011 9.92867 52.8004 5.10917 50.8121 3.9638C50.0669 3.67826 49.2706 3.55045 48.4734 3.58843C47.6763 3.6264 46.8957 3.82935 46.181 4.18444C43.4333 5.31828 40.9072 6.92796 38.7187 8.93949C33.3803 13.8502 28.8608 19.5824 25.3312 25.9193L25.3139 25.9044Z" fill="#007ACC"/>
<path d="M49.0742 62.3804C45.715 62.3804 41.4483 60.3475 37.0057 56.5271C31.3202 51.3538 26.5088 45.295 22.7579 38.5854C18.8674 32.076 16.0435 24.986 14.3932 17.5843C13.6775 14.3279 13.5448 10.9704 14.0015 7.66768C14.107 6.44249 14.4801 5.25538 15.0944 4.19006C15.7086 3.12474 16.5491 2.20715 17.5566 1.50199C21.2431 -0.632572 27.4981 1.56149 33.8819 7.22887C39.1888 12.2422 43.6954 18.0398 47.2446 24.4194C51.1327 30.7768 53.9862 37.7115 55.6986 44.9643C56.4451 48.3402 56.5602 51.8251 56.0382 55.2429C55.914 56.5033 55.5187 57.722 54.8794 58.8153C54.2401 59.9086 53.3719 60.8508 52.3343 61.5772C51.3381 62.1293 50.213 62.4065 49.0742 62.3804ZM25.3238 37.0929C28.9222 43.5051 33.5182 49.3037 38.9394 54.2711C44.5151 59.0682 48.9379 60.0996 50.8394 58.9815C52.8227 57.8287 54.2854 53.1232 52.7781 45.5097C51.1267 38.5852 48.3897 31.9658 44.6688 25.897C41.2818 19.7911 36.9802 14.2396 31.9134 9.43532C25.9039 4.10016 21.0299 2.90768 19.0441 4.05801C18.4252 4.56099 17.9172 5.18683 17.5524 5.89603C17.1876 6.60523 16.9737 7.38237 16.9244 8.17839C16.5302 11.1239 16.6586 14.1158 17.3037 17.0166C18.8911 24.095 21.5995 30.8742 25.3263 37.0979L25.3238 37.0929Z" fill="#007ACC"/>
</g>
<defs>
<clipPath id="clip0_303_64">
<rect width="70" height="63" fill="white"/>
</clipPath>
</defs>
</svg>
