<svg width="97" height="68" viewBox="0 0 97 68" fill="none" xmlns="http://www.w3.org/2000/svg">
<g clip-path="url(#clip0_303_146)">
<path d="M40.2578 7.4237C43.3737 4.17707 47.7117 2.16352 52.5091 2.16352C58.8871 2.16352 64.4514 5.71992 67.4143 10.9994C70.0649 9.81545 72.9358 9.20522 75.8388 9.2087C87.3417 9.2087 96.6672 18.6154 96.6672 30.2188C96.6672 41.8238 87.3417 51.2308 75.8388 51.2308C74.461 51.2316 73.0866 51.0945 71.7361 50.8217C69.1264 55.4763 64.1541 58.6209 58.4466 58.6209C56.1385 58.6238 53.8603 58.0995 51.7857 57.0879C49.1405 63.3099 42.9774 67.6728 35.7943 67.6728C28.3143 67.6728 21.9397 62.9396 19.4925 56.3017C18.4234 56.5291 17.3153 56.6474 16.1786 56.6474C7.27286 56.6474 0.0527757 49.3533 0.0527757 40.3538C0.0463602 37.5018 0.787496 34.6979 2.20232 32.2215C3.61715 29.7452 5.65626 27.6828 8.11644 26.2401C7.09493 23.8885 6.5692 21.3515 6.57209 18.7876C6.57209 8.43803 14.9742 0.0483398 25.3382 0.0483398C31.4227 0.0483398 36.8302 2.94136 40.2582 7.4237" fill="#00A1E0"/>
<path d="M14.0465 35.1166C13.986 35.2749 14.0684 35.3077 14.088 35.3357C14.2693 35.4675 14.4537 35.5624 14.6396 35.6681C15.6252 36.1914 16.5553 36.3444 17.5284 36.3444C19.5103 36.3444 20.7407 35.2904 20.7407 33.593V33.5601C20.7407 31.9912 19.352 31.4212 18.0486 31.0101L17.8794 30.9546C16.8968 30.6354 16.0491 30.3604 16.0491 29.7132V29.6792C16.0491 29.1258 16.5443 28.7182 17.3123 28.7182C18.1657 28.7182 19.1786 29.0015 19.831 29.3623C19.831 29.3623 20.0221 29.4862 20.0924 29.3003C20.1309 29.2013 20.4611 28.3124 20.4959 28.2161C20.5329 28.1114 20.4668 28.0344 20.3995 27.9932C19.6549 27.5399 18.6255 27.2305 17.5602 27.2305L17.3618 27.232C15.5481 27.232 14.2818 28.3275 14.2818 29.898V29.9308C14.2818 31.5866 15.6788 32.1231 16.9875 32.4974L17.1983 32.5624C18.1518 32.8552 18.9738 33.1072 18.9738 33.7789V33.8117C18.9738 34.4256 18.4396 34.8827 17.5779 34.8827C17.2436 34.8827 16.1771 34.8759 15.0249 34.1476C14.8859 34.0664 14.8047 34.0074 14.6974 33.9428C14.6407 33.9069 14.4994 33.8446 14.4375 34.032L14.0465 35.1166ZM43.0598 35.1166C42.9993 35.2749 43.0817 35.3077 43.1013 35.3357C43.2827 35.4675 43.467 35.5624 43.6529 35.6681C44.6381 36.1914 45.5686 36.3444 46.5418 36.3444C48.5236 36.3444 49.754 35.2904 49.754 33.593V33.5601C49.754 31.9912 48.3653 31.4212 47.062 31.0101L46.8927 30.9546C45.9101 30.6354 45.062 30.3604 45.062 29.7132V29.6792C45.062 29.1258 45.5577 28.7182 46.3257 28.7182C47.1791 28.7182 48.1919 29.0015 48.8443 29.3623C48.8443 29.3623 49.0355 29.4862 49.1057 29.3003C49.1443 29.2013 49.4745 28.3124 49.5088 28.2161C49.5462 28.1114 49.4801 28.0344 49.4125 27.9932C48.6683 27.5399 47.6385 27.2305 46.5735 27.2305L46.3752 27.232C44.5611 27.232 43.2951 28.3275 43.2951 29.898V29.9308C43.2951 31.5866 44.6918 32.1231 46.0008 32.4974L46.2112 32.5624C47.1651 32.8552 47.9883 33.1072 47.9883 33.7789V33.8117C47.9883 34.4256 47.4526 34.8827 46.5913 34.8827C45.6871 34.8892 44.8005 34.6339 44.0382 34.1476C43.8992 34.0664 43.8165 34.0101 43.7122 33.9428C43.6763 33.9194 43.5082 33.8544 43.4504 34.032L43.0598 35.1166ZM62.8663 31.7925C62.8663 32.7521 62.6872 33.5076 62.3351 34.0414C61.9868 34.5703 61.4598 34.8272 60.7247 34.8272C59.9884 34.8272 59.464 34.5714 59.1214 34.0414C58.7746 33.5088 58.5985 32.7521 58.5985 31.7925C58.5985 30.8348 58.7746 30.0804 59.1214 29.5523C59.464 29.0291 59.9884 28.7744 60.7247 28.7744C61.4598 28.7744 61.9865 29.0291 62.3363 29.5519C62.6876 30.0808 62.8663 30.8348 62.8663 31.7925ZM64.5206 30.0143C64.3582 29.4654 64.105 28.9811 63.7677 28.5776C63.4303 28.173 63.0038 27.8485 62.4972 27.6116C61.9921 27.3763 61.3949 27.2565 60.7247 27.2565C60.053 27.2565 59.4557 27.3763 58.9506 27.6116C58.4444 27.8481 58.0175 28.173 57.679 28.5776C57.3432 28.9822 57.0897 29.4669 56.9261 30.0143C56.7652 30.561 56.6843 31.1582 56.6843 31.7925C56.6843 32.4272 56.7652 33.026 56.9261 33.5707C57.0901 34.1185 57.3417 34.6028 57.6805 35.0078C58.026 35.419 58.4603 35.7464 58.9506 35.9654C59.4569 36.1955 60.053 36.3122 60.7247 36.3122C61.3949 36.3122 61.991 36.1951 62.4972 35.9654C62.9877 35.7464 63.4221 35.419 63.7677 35.0078C64.105 34.6043 64.3582 34.12 64.5206 33.5707C64.683 33.0244 64.7643 32.426 64.7643 31.7925C64.7643 31.1597 64.683 30.561 64.5206 30.0143ZM78.1051 34.5714C78.0503 34.4105 77.8947 34.471 77.8947 34.471C77.654 34.5631 77.3979 34.6485 77.1255 34.6912C76.8253 34.7357 76.522 34.7573 76.2185 34.7558C75.4176 34.7558 74.7814 34.5178 74.3258 34.0471C73.8691 33.5764 73.6129 32.8155 73.6156 31.7857C73.6186 30.8488 73.8445 30.1439 74.2503 29.6071C74.6537 29.0733 75.2672 28.7994 76.0863 28.7994C76.7689 28.7994 77.2891 28.8776 77.8342 29.0498C77.8342 29.0498 77.965 29.1065 78.0269 28.9354C78.1712 28.5338 78.2789 28.2459 78.433 27.8043C78.4768 27.6789 78.3696 27.6252 78.331 27.6101C78.1164 27.5263 77.6098 27.3899 77.2271 27.3321C76.8694 27.2773 76.4512 27.2482 75.9858 27.2482C75.2907 27.2482 74.6715 27.3665 74.1415 27.6033C73.6129 27.8387 73.1645 28.1636 72.8094 28.5682C72.4543 28.9724 72.1846 29.4571 72.0044 30.0049C71.8253 30.5511 71.7346 31.1514 71.7346 31.7857C71.7346 33.1578 72.1049 34.2673 72.8355 35.0792C73.5676 35.894 74.6677 36.3081 76.1014 36.3081C76.9491 36.3081 77.8191 36.1362 78.4436 35.8899C78.4436 35.8899 78.5637 35.8321 78.5116 35.6931L78.1051 34.5711V34.5714ZM81 30.8738C81.0782 30.3411 81.2256 29.898 81.4526 29.5527C81.7952 29.0283 82.3181 28.7404 83.0532 28.7404C83.788 28.7404 84.2738 29.0294 84.6222 29.5527C84.8534 29.898 84.9538 30.3604 84.9935 30.8738H81ZM86.5696 29.7026C86.4291 29.1726 86.0807 28.6373 85.8526 28.3925C85.4918 28.0042 85.1397 27.7329 84.7899 27.5818C84.2823 27.3666 83.7364 27.2561 83.1851 27.2569C82.4862 27.2569 81.8515 27.374 81.337 27.6158C80.821 27.8583 80.3873 28.1885 80.0473 28.6003C79.7073 29.0102 79.4515 29.499 79.2891 30.0536C79.1251 30.6052 79.0427 31.207 79.0427 31.8412C79.0427 32.4869 79.1281 33.0879 79.2974 33.6289C79.4678 34.174 79.7405 34.6546 80.1096 35.052C80.4768 35.4524 80.9501 35.7664 81.5172 35.9851C82.0801 36.2027 82.7639 36.3156 83.5496 36.3141C85.1669 36.3085 86.0192 35.9481 86.3698 35.7539C86.4317 35.7199 86.491 35.6591 86.4166 35.4857L86.0505 34.4604C85.9958 34.3074 85.8401 34.364 85.8401 34.364C85.4397 34.5125 84.87 34.7796 83.5417 34.777C82.6732 34.7754 82.0291 34.5193 81.626 34.1189C81.2116 33.709 81.0095 33.1064 80.9736 32.2557L86.5738 32.261C86.5738 32.261 86.7211 32.2583 86.7362 32.1151C86.7415 32.0547 86.9289 30.9644 86.5696 29.7026ZM36.1514 30.8738C36.2311 30.3411 36.3769 29.898 36.6043 29.5527C36.947 29.0283 37.4698 28.7404 38.2046 28.7404C38.9397 28.7404 39.4256 29.0294 39.775 29.5527C40.0051 29.898 40.1056 30.3604 40.1452 30.8738H36.1514ZM41.7198 29.7026C41.5793 29.1726 41.2325 28.6373 41.0039 28.3925C40.6435 28.0042 40.2911 27.7329 39.9416 27.5818C39.434 27.3666 38.8882 27.2561 38.3368 27.2569C37.6391 27.2569 37.0033 27.374 36.4887 27.6158C35.9723 27.8583 35.539 28.1885 35.199 28.6003C34.859 29.0102 34.6032 29.499 34.4408 30.0536C34.2783 30.6052 34.1945 31.207 34.1945 31.8412C34.1945 32.4869 34.2795 33.0879 34.4491 33.6289C34.6195 34.174 34.8922 34.6546 35.2609 35.052C35.6285 35.4524 36.1019 35.7664 36.6689 35.9851C37.2318 36.2027 37.9156 36.3156 38.7014 36.3141C40.3186 36.3085 41.1705 35.9481 41.5215 35.7539C41.5834 35.7199 41.6424 35.6591 41.5683 35.4857L41.2038 34.4604C41.1471 34.3074 40.9918 34.364 40.9918 34.364C40.5914 34.5125 40.0228 34.7796 38.6919 34.777C37.8249 34.7754 37.1808 34.5193 36.7777 34.1189C36.3633 33.709 36.1608 33.1064 36.1253 32.2557L41.7251 32.261C41.7251 32.261 41.8724 32.2583 41.8875 32.1151C41.8932 32.0547 42.0802 30.9644 41.7198 29.7026ZM24.047 34.5405C23.8279 34.3659 23.7977 34.3217 23.7236 34.2088C23.6133 34.0369 23.557 33.7917 23.557 33.4808C23.557 32.9882 23.7195 32.6346 24.0564 32.3966C24.0527 32.3977 24.5381 31.9765 25.6809 31.9916C26.4829 32.0029 27.1999 32.1212 27.1999 32.1212V34.6674H27.2014C27.2014 34.6674 26.4897 34.82 25.6888 34.868C24.5491 34.9368 24.0428 34.5393 24.047 34.5405ZM26.2751 30.6059C26.0481 30.5893 25.7538 30.5795 25.4013 30.5795C24.9208 30.5795 24.4569 30.6399 24.0224 30.757C23.6029 30.8659 23.2066 31.0496 22.8525 31.2995C22.5143 31.5407 22.2364 31.8567 22.0402 32.2228C21.8423 32.5919 21.7418 33.0267 21.7418 33.5137C21.7418 34.0093 21.8268 34.44 21.9975 34.7924C22.164 35.1409 22.4154 35.4418 22.7285 35.6678C23.0395 35.8948 23.4237 36.0614 23.8694 36.1619C24.3084 36.2624 24.8063 36.313 25.3515 36.313C25.9257 36.313 26.498 36.2665 27.0526 36.1713C27.5246 36.0901 27.9949 35.9992 28.4632 35.899C28.6491 35.8548 28.8557 35.7985 28.8557 35.7985C28.9947 35.7641 28.9834 35.6152 28.9834 35.6152L28.9808 30.4945C28.9808 29.3713 28.6808 28.5387 28.0903 28.0227C27.5029 27.5078 26.637 27.2478 25.5181 27.2478C25.0987 27.2478 24.4225 27.3056 24.0183 27.3869C24.0183 27.3869 22.7943 27.6234 22.2907 28.017C22.2907 28.017 22.1808 28.0858 22.2412 28.2399L22.6379 29.3052C22.687 29.4427 22.8207 29.3959 22.8207 29.3959C22.8207 29.3959 22.8634 29.3796 22.9129 29.3506C23.9903 28.7642 25.353 28.7824 25.353 28.7824C25.9585 28.7824 26.4236 28.9033 26.7375 29.1443C27.0431 29.3781 27.1984 29.7317 27.1984 30.4778V30.7143C26.7167 30.6456 26.2751 30.6059 26.2751 30.6059ZM71.4422 27.7201C71.4503 27.7014 71.4545 27.6813 71.4547 27.6609C71.4548 27.6406 71.4508 27.6204 71.4429 27.6016C71.4351 27.5829 71.4235 27.5659 71.4089 27.5517C71.3943 27.5375 71.377 27.5264 71.358 27.5191C71.2632 27.4821 70.7868 27.3816 70.4192 27.3582C69.7162 27.3155 69.3252 27.4337 68.9757 27.5909C68.6289 27.7476 68.2436 28.0008 68.0286 28.2886V27.6071C68.0286 27.5123 67.9614 27.4367 67.8677 27.4367H66.4321C66.3388 27.4367 66.2712 27.5123 66.2712 27.6071V35.9598C66.2712 36.0535 66.3483 36.1305 66.442 36.1305H67.913C67.9354 36.1304 67.9575 36.1259 67.978 36.1173C67.9986 36.1087 68.0173 36.0961 68.033 36.0802C68.0487 36.0644 68.0612 36.0456 68.0696 36.0249C68.0781 36.0042 68.0824 35.9821 68.0823 35.9598V31.7868C68.0823 31.227 68.1442 30.6679 68.2682 30.3173C68.389 29.9701 68.5545 29.6924 68.7581 29.4926C68.9527 29.3011 69.1901 29.1586 69.4506 29.077C69.7105 28.9973 69.9984 28.9713 70.202 28.9713C70.4952 28.9713 70.817 29.0468 70.817 29.0468C70.9243 29.0593 70.9851 28.9932 71.021 28.8957C71.117 28.6396 71.3897 27.8727 71.4419 27.7201" fill="white"/>
<path d="M57.6322 23.8491C57.4505 23.7942 57.2657 23.75 57.0787 23.7169C56.8273 23.6757 56.5727 23.6565 56.3179 23.6595C55.3047 23.6595 54.5064 23.9455 53.9466 24.5099C53.389 25.0712 53.0104 25.9262 52.8208 27.0504L52.7517 27.429H51.4801C51.4801 27.429 51.3259 27.4233 51.2931 27.5914L51.0853 28.7572C51.0702 28.8672 51.1182 28.9374 51.2666 28.9374H52.5042L51.2489 35.9452C51.1514 36.5096 51.0384 36.9735 50.913 37.3256C50.7906 37.6724 50.6712 37.9327 50.5224 38.1227C50.3788 38.304 50.2444 38.4393 50.0101 38.5175C49.8175 38.5825 49.5946 38.6127 49.3509 38.6127C49.216 38.6127 49.0359 38.5904 48.9025 38.5632C48.7979 38.5427 48.6962 38.5098 48.5995 38.465C48.5995 38.465 48.4552 38.4102 48.3974 38.5549C48.3521 38.6746 48.0215 39.5813 47.9818 39.6931C47.9433 39.8046 47.9981 39.8911 48.0684 39.9172C48.2334 39.975 48.3558 40.0135 48.5802 40.0671C48.8915 40.1404 49.1545 40.1442 49.4008 40.1442C49.9153 40.1442 50.386 40.0713 50.7755 39.9311C51.1665 39.7895 51.5077 39.5428 51.8106 39.2096C52.1367 38.8492 52.3418 38.4722 52.5371 37.9561C52.7313 37.4469 52.8979 36.8137 53.0297 36.0763L54.2919 28.9374H56.1362C56.1362 28.9374 56.2914 28.9427 56.3232 28.7735L56.5325 27.6092C56.5461 27.4977 56.4996 27.429 56.3492 27.429H54.5586C54.5684 27.3889 54.6496 26.7588 54.8548 26.1657C54.9428 25.9137 55.1079 25.7086 55.2469 25.5684C55.378 25.4351 55.5389 25.335 55.7165 25.2764C55.894 25.2186 56.0961 25.191 56.3179 25.191C56.4856 25.191 56.6522 25.2103 56.7773 25.2363C56.9511 25.2737 57.0183 25.293 57.0636 25.3066C57.2468 25.3618 57.2714 25.3081 57.3073 25.2197L57.7353 24.0448C57.7795 23.9183 57.6707 23.8642 57.6322 23.8491ZM32.615 35.9607C32.615 36.054 32.5474 36.1299 32.4541 36.1299H30.969C30.8753 36.1299 30.8092 36.0544 30.8092 35.9607V24.0089C30.8092 23.9156 30.8753 23.8397 30.969 23.8397H32.4537C32.5474 23.8397 32.615 23.9152 32.615 24.0089V35.9607Z" fill="white"/>
</g>
<defs>
<clipPath id="clip0_303_146">
<rect width="96.72" height="68" fill="white"/>
</clipPath>
</defs>
</svg>
