<svg width="63" height="63" viewBox="0 0 63 63" fill="none" xmlns="http://www.w3.org/2000/svg">
<g clip-path="url(#clip0_303_59)">
<path fill-rule="evenodd" clip-rule="evenodd" d="M31.5 0.262695C37.6782 0.262695 43.7177 2.09474 48.8546 5.52716C53.9916 8.95958 57.9954 13.8382 60.3597 19.5461C62.724 25.254 63.3426 31.5348 62.1373 37.5943C60.932 43.6538 57.9569 49.2198 53.5883 53.5884C49.2196 57.9571 43.6536 60.9322 37.5941 62.1375C31.5347 63.3428 25.2538 62.7242 19.5459 60.3599C13.838 57.9956 8.9594 53.9918 5.52698 48.8548C2.09456 43.7178 0.262512 37.6784 0.262512 31.5002C0.262512 23.2155 3.5536 15.2701 9.41176 9.41195C15.2699 3.55378 23.2153 0.262695 31.5 0.262695Z" fill="#CC6699"/>
<path d="M51.0948 13.632C49.6802 8.08513 40.4808 6.26889 31.7744 9.35248C26.322 11.1847 21.2844 14.0742 16.95 17.8558C12.1551 22.3406 11.3898 26.2453 11.7044 27.8763C12.82 33.6329 20.703 37.3948 23.945 40.1861V40.2017C22.99 40.6725 15.9928 44.218 14.3506 47.8326C12.6236 51.6525 14.6251 54.3925 15.9527 54.7607C17.9459 55.2405 20.0393 55.0843 21.9393 54.314C23.8392 53.5437 25.4504 52.1979 26.5466 50.4655C27.4526 49.0619 28.0195 47.4666 28.2023 45.806C28.3851 44.1454 28.1788 42.465 27.5998 40.8979C29.1614 40.5011 30.7846 40.4079 32.3813 40.6235C37.8613 41.2638 38.9368 44.6843 38.7315 46.1168C38.6349 46.6267 38.4297 47.1098 38.1298 47.5333C37.8299 47.9568 37.4423 48.3108 36.9933 48.5712C36.6096 48.8099 36.4913 48.8902 36.5248 49.0687C36.5716 49.3253 36.7479 49.3164 37.0759 49.2606C37.8994 49.0013 38.625 48.4985 39.1571 47.8186C39.6893 47.1387 40.0029 46.3136 40.0568 45.4519C40.1885 42.105 36.9733 38.3431 31.2791 38.4391C29.6253 38.3918 27.975 38.618 26.3949 39.1084C26.3158 39.0181 26.2355 38.9288 26.1539 38.8407C22.633 35.0855 16.1267 32.4281 16.4011 27.3788C16.5015 25.5424 17.1397 20.7095 28.8961 14.8458C38.5351 10.0419 46.2508 11.3651 47.5851 14.2947C49.4906 18.4805 43.4617 26.2564 33.4523 27.3788C32.346 27.6033 31.2034 27.576 30.1091 27.2986C29.0148 27.0213 27.997 26.5011 27.1312 25.7767C26.6046 25.1966 26.5265 25.172 26.3302 25.2791C26.0111 25.4554 26.2142 25.9686 26.3302 26.2721C26.7135 26.9628 27.2308 27.57 27.8519 28.0582C28.473 28.5463 29.1853 28.9055 29.9471 29.1147C33.8825 29.9698 37.9873 29.5638 41.679 27.9544C47.7502 25.6138 52.4849 19.0874 51.0948 13.632ZM25.2927 41.9042C25.7358 43.4319 25.7133 45.0571 25.228 46.572C25.1759 46.7296 25.1186 46.8858 25.0562 47.0405C24.9937 47.1952 24.926 47.344 24.8531 47.4868C24.4776 48.2551 23.9912 48.964 23.4095 49.5908C21.5955 51.57 19.0586 52.3197 17.9719 51.6882C16.7983 51.0077 17.3851 48.2164 19.4892 45.9918C21.1059 44.3931 22.9699 43.0656 25.0093 42.0604L25.2927 41.9042Z" fill="white"/>
</g>
<defs>
<clipPath id="clip0_303_59">
<rect width="63" height="63" fill="white"/>
</clipPath>
</defs>
</svg>
