<svg width="68" height="68" viewBox="0 0 68 68" fill="none" xmlns="http://www.w3.org/2000/svg">
<path d="M61.6463 10.6887L49.3935 4.78972C48.7015 4.45609 47.923 4.34599 47.1656 4.47469C46.4083 4.60338 45.7098 4.96449 45.1669 5.50797L5.0575 42.075C4.57086 42.5165 4.27955 43.1333 4.24767 43.7897C4.21579 44.446 4.44594 45.0882 4.8875 45.5748C4.94063 45.6322 4.99375 45.6875 5.05113 45.7385L8.32575 48.7135C8.75365 49.1029 9.30443 49.3302 9.88245 49.3558C10.4605 49.3814 11.0292 49.2038 11.4899 48.8537L59.8018 12.2187C60.1667 11.9418 60.6016 11.7723 61.0577 11.7292C61.5137 11.686 61.9727 11.7711 62.3831 11.9747C62.7934 12.1783 63.1388 12.4924 63.3803 12.8817C63.6218 13.271 63.7498 13.7199 63.75 14.178V14.0356C63.75 13.3363 63.5525 12.6511 63.1803 12.0591C62.8082 11.467 62.2764 10.992 61.6463 10.6887Z" fill="#0065A9"/>
<path d="M61.6463 57.3113L49.3935 63.2124C48.7013 63.5451 47.923 63.6547 47.1659 63.526C46.4088 63.3974 45.7103 63.0368 45.1669 62.4942L5.0575 25.9251C4.57086 25.4835 4.27955 24.8667 4.24767 24.2103C4.21579 23.554 4.44594 22.9118 4.8875 22.4252C4.94063 22.3678 4.99375 22.3126 5.05113 22.2616L8.32575 19.2866C8.75408 18.8955 9.30613 18.6672 9.88557 18.6416C10.465 18.6159 11.0351 18.7946 11.4963 19.1463L59.8018 55.7813C60.1667 56.0582 60.6016 56.2278 61.0577 56.2709C61.5137 56.314 61.9727 56.2289 62.3831 56.0253C62.7934 55.8217 63.1388 55.5076 63.3803 55.1183C63.6218 54.7291 63.7498 54.2801 63.75 53.8221V53.9751C63.7477 54.6725 63.5492 55.3553 63.1772 55.9453C62.8052 56.5352 62.2746 57.0086 61.6463 57.3113Z" fill="#007ACC"/>
<path d="M49.3935 63.2124C48.7014 63.5451 47.923 63.6547 47.1659 63.526C46.4088 63.3974 45.7103 63.0368 45.1669 62.4942C45.472 62.7953 45.8593 62.9997 46.2801 63.0818C46.701 63.1638 47.1367 63.1198 47.5326 62.9553C47.9285 62.7908 48.2671 62.5131 48.5059 62.157C48.7447 61.8009 48.8731 61.3823 48.875 60.9535V7.04653C48.8754 6.61576 48.7479 6.19459 48.5087 5.83635C48.2694 5.47811 47.9293 5.19893 47.5313 5.03418C47.1333 4.86942 46.6953 4.8265 46.2729 4.91086C45.8505 4.99521 45.4626 5.20304 45.1584 5.50803C45.7014 4.96475 46.3998 4.60361 47.1569 4.47456C47.9141 4.34551 48.6927 4.45491 49.385 4.78765L61.6356 10.6782C62.2678 10.9799 62.8017 11.4542 63.1758 12.0464C63.55 12.6386 63.749 13.3246 63.75 14.025V53.975C63.7502 54.6749 63.5526 55.3607 63.18 55.9532C62.8074 56.5457 62.275 57.0209 61.6441 57.324L49.3935 63.2124Z" fill="#1F9CF0"/>
</svg>
