<svg width="68" height="68" viewBox="0 0 68 68" fill="none" xmlns="http://www.w3.org/2000/svg">
<g clip-path="url(#clip0_303_156)">
<path d="M50.439 24.2533C50.439 24.2533 44.9253 41.5451 44.4748 42.9731C43.0864 32.1358 41.6848 21.3002 40.2702 10.4663C30.8748 10.4663 25.8513 17.153 23.1965 24.2108L15.929 43.0156C15.8865 41.667 14.909 24.4148 14.909 24.4148C14.331 15.7675 6.409 10.5031 0 10.5031L7.7605 57.5365C17.6035 57.494 22.9103 50.847 25.6898 43.7891C25.6898 43.7891 31.6115 28.4948 31.8552 27.8006C31.8977 28.4523 36.1052 57.5336 36.1052 57.5336C45.9878 57.5336 51.2975 51.2946 54.1535 44.4833L68 10.506C58.2392 10.506 53.0938 17.153 50.439 24.2505V24.2533Z" fill="black"/>
</g>
<defs>
<clipPath id="clip0_303_156">
<rect width="68" height="68" fill="white"/>
</clipPath>
</defs>
</svg>
