<svg width="68" height="68" viewBox="0 0 68 68" fill="none" xmlns="http://www.w3.org/2000/svg">
<path d="M38.0913 23.3919C36.958 23.9926 36.55 24.9843 36.55 27.7269C36.55 27.7269 37.1223 27.1773 37.9638 26.8684C38.4826 26.6804 38.9712 26.4179 39.4145 26.0893C40.3722 25.3894 40.5053 24.4969 40.5053 22.9839C40.5053 22.9839 38.9385 22.9386 38.0913 23.3919ZM31.4358 24.0408C30.5292 24.8511 30.2515 26.1346 30.2515 26.1346L27.1972 37.8674L24.6783 28.2483C24.4318 27.2424 23.9813 25.9589 23.2758 25.1118C22.3975 24.0408 20.6012 23.9756 20.4 23.9756C20.2073 23.9756 18.3912 24.0408 17.493 25.1288C16.796 25.9873 16.3427 27.2566 16.0962 28.2681L13.5773 37.8873L10.557 26.1374C10.557 26.1374 10.2963 24.8369 9.37266 24.0436C7.87383 22.7261 5.64966 23.0038 5.64966 23.0038L11.4523 45.0018C11.4523 45.0018 13.3705 45.1491 14.3282 44.6448C15.5777 44.0101 16.1953 43.5086 16.9603 40.4996C17.6432 37.8363 19.5443 30.0049 19.72 29.4354C19.8022 29.1578 19.9183 28.4948 20.4028 28.4948C20.91 28.4948 21.0092 29.1436 21.0857 29.4354C21.267 29.9879 23.1512 37.8363 23.851 40.4996C24.6103 43.4888 25.2138 43.9761 26.4832 44.6448C27.4408 45.1491 29.359 45.0018 29.359 45.0018L35.1617 23.0179C35.156 23.0179 32.9262 22.7374 31.4358 24.0408ZM40.5053 26.5908C40.5053 26.5908 40.1398 27.1433 39.3153 27.6306C38.7827 27.9253 38.2755 28.1349 37.723 28.3984C36.8078 28.8348 36.55 29.3391 36.55 30.0843V45.0046C36.55 45.0046 38.029 45.1831 38.9697 44.7099C40.205 44.0809 40.4798 43.4774 40.5025 40.7319V26.5908H40.5053ZM54.9893 34.0481L62.3532 23.0689C62.3532 23.0689 59.2478 22.5334 57.7037 23.9444C56.712 24.8369 55.6127 26.4519 55.6127 26.4519L52.9153 30.3789C52.7652 30.5744 52.6207 30.8039 52.3487 30.8039C52.0682 30.8039 51.8925 30.5914 51.7763 30.3789L49.0507 26.4633C49.0507 26.4633 47.9598 24.8539 46.954 23.9586C45.424 22.5448 42.3045 23.0803 42.3045 23.0803L49.6797 34.0311L42.3045 44.9621C42.3045 44.9621 45.5515 45.3843 47.0872 43.9704C48.0788 43.0779 49.0365 41.5989 49.0365 41.5989L51.7282 37.6804C51.8783 37.4878 52.0228 37.2639 52.2948 37.2639C52.5782 37.2639 52.751 37.4764 52.8672 37.6804L55.5645 41.5989C55.5645 41.5989 56.5703 43.0439 57.5478 43.9704C59.0722 45.3843 62.271 44.9621 62.271 44.9621L54.9893 34.0481Z" fill="black"/>
</svg>
