<svg width="70" height="68" viewBox="0 0 70 68" fill="none" xmlns="http://www.w3.org/2000/svg">
<g clip-path="url(#clip0_303_126)">
<path d="M58.076 0H11.564C5.17962 0 0.00402832 5.17559 0.00402832 11.56V56.3312C0.00402832 62.7156 5.17962 67.8912 11.564 67.8912H58.076C64.4604 67.8912 69.636 62.7156 69.636 56.3312V11.56C69.636 5.17559 64.4604 0 58.076 0Z" fill="#470137"/>
<path d="M36.6093 17.8541L27.9208 32.1947L37.2164 47.4227C37.2762 47.5293 37.2928 47.6544 37.2632 47.773C37.2487 47.8236 37.2177 47.8361 37.1701 47.838L37.1174 47.8372L37.0532 47.8356C37.0184 47.8356 36.9795 47.8372 36.9362 47.8443H30.2341L30.1025 47.8421C29.7413 47.8326 29.481 47.7809 29.3224 47.516C28.7023 46.3079 28.0794 45.1012 27.4537 43.8959C26.8941 42.8209 26.3192 41.7539 25.7293 40.6953L25.4687 40.2291C24.7631 38.975 24.0701 37.7137 23.3901 36.4456H23.3433C22.7152 37.7005 22.069 38.9462 21.4047 40.1823C20.7348 41.4281 20.073 42.6662 19.4194 43.8959C18.7654 45.1266 18.0959 46.349 17.411 47.5628C17.3008 47.8103 17.1177 47.862 16.8629 47.8704L16.7568 47.872H10.3575L10.3297 47.8728L10.2383 47.881C10.1875 47.884 10.157 47.8731 10.1472 47.7964C10.1296 47.6825 10.1546 47.5661 10.2174 47.4695L19.2325 32.6618L10.4508 17.8079C10.3575 17.6838 10.342 17.5826 10.404 17.5043C10.4384 17.4644 10.4817 17.4331 10.5304 17.4128C10.5791 17.3925 10.6318 17.3838 10.6844 17.3873H17.2706C17.4142 17.3795 17.5578 17.4034 17.6911 17.4575C17.8026 17.5209 17.8987 17.6087 17.9713 17.7146C18.5319 18.9603 19.1548 20.2061 19.8399 21.4513C20.5198 22.6887 21.2127 23.9188 21.9185 25.1415C22.6136 26.3453 23.2603 27.5764 23.8571 28.8317H23.9039C24.5155 27.5767 25.1462 26.3309 25.7956 25.095C26.4335 23.8805 27.0876 22.6579 27.7573 21.4279C28.4185 20.2137 29.0647 18.9914 29.6958 17.7613C29.7317 17.646 29.7959 17.5416 29.8827 17.4575C29.9981 17.3991 30.1277 17.3748 30.2564 17.3873H36.3756C36.4319 17.3733 36.4912 17.3779 36.5446 17.4005C36.598 17.4231 36.6426 17.4624 36.6717 17.5125C36.7009 17.5626 36.713 17.6209 36.7062 17.6784C36.6994 17.736 36.674 17.7898 36.634 17.8318L36.6095 17.8546L36.6093 17.8541ZM50.3371 48.4468L50.0151 48.4503C47.865 48.4831 45.7347 48.0363 43.7789 47.1425C41.957 46.2993 40.434 44.9228 39.4114 43.1952C38.3803 41.4827 37.8509 39.3486 37.8243 36.7937L37.8232 36.5856C37.8057 34.4418 38.3536 32.3311 39.4117 30.4665C40.4706 28.6209 42.0144 27.1002 43.8757 26.0693L44.036 25.9823C46.0596 24.8611 48.5044 24.3005 51.3696 24.3005L51.4947 24.3019L51.6378 24.3065L51.7983 24.3135L51.9767 24.3239L52.2765 24.3451L52.6159 24.3723L52.8643 24.3941V15.1918C52.8643 14.9742 52.9578 14.8648 53.1444 14.8648H59.0302C59.0683 14.8594 59.1071 14.8628 59.1436 14.875C59.1801 14.8871 59.2132 14.9076 59.2404 14.9348C59.2676 14.962 59.2881 14.9951 59.3002 15.0316C59.3124 15.0681 59.3158 15.1069 59.3104 15.145V42.7516C59.3104 43.2151 59.3283 43.7145 59.3642 44.2487L59.4513 45.4605L59.4975 46.1614C59.5033 46.2585 59.4796 46.355 59.4295 46.4384C59.3795 46.5218 59.3055 46.5881 59.2171 46.6287C57.6987 47.2619 56.1171 47.7316 54.4992 48.0298C53.1257 48.2833 51.7336 48.4228 50.3371 48.4468ZM52.8643 42.658V29.9059C52.6118 29.8375 52.354 29.7907 52.0937 29.7658C51.7755 29.7338 51.4558 29.7182 51.136 29.719C50.0025 29.7078 48.8823 29.9639 47.8663 30.4665C46.8766 30.9584 46.0316 31.6988 45.4139 32.6153C44.7973 33.5172 44.4782 34.695 44.4573 36.1485L44.4562 36.3055C44.4335 37.3237 44.5998 38.3372 44.9466 39.2948C45.229 40.0665 45.6753 40.7677 46.2549 41.3503C46.8096 41.8861 47.4811 42.2859 48.2166 42.518C48.9935 42.7695 49.8055 42.8958 50.6222 42.892C51.0579 42.892 51.4626 42.8762 51.8366 42.8449C52.1349 42.8225 52.4306 42.7733 52.7201 42.698L52.8643 42.658Z" fill="#FF61F6"/>
</g>
<defs>
<clipPath id="clip0_303_126">
<rect width="69.64" height="68" fill="white"/>
</clipPath>
</defs>
</svg>
