<svg id="Layer_1" data-name="Layer 1" xmlns="http://www.w3.org/2000/svg" xmlns:xlink="http://www.w3.org/1999/xlink" viewBox="0 0 301 328.32"><defs><style>.cls-1{fill:#00f6ee;}</style><symbol id="ACC-Short" data-name="ACC-Short" viewBox="0 0 97.73 86.96"><path d="M48,71.06a53.18,53.18,0,0,1-12.84,3A39.93,39.93,0,0,1,23,73.61a17.46,17.46,0,0,1-9-4.51q-3.49-3.39-3.49-9.35,0-9.34,6.21-14.29t17.17-6a111.5,111.5,0,0,1,24.88.85v-9q-17.32-3.06-30.57-1.19T7.48,39.34Q0,46.66,0,59.75q0,8.32,3.91,13.94A23.49,23.49,0,0,0,14.28,82a38.48,38.48,0,0,0,14.29,2.89,59.86,59.86,0,0,0,15.9-2.21A47.72,47.72,0,0,0,58.8,76.2v-11A39.89,39.89,0,0,1,48,71.06Z"/><path class="cls-1" d="M64.32,77.65v8H75.54l.17-42.34q-.17-8.67-.51-16.07a36.46,36.46,0,0,0-2.8-13q-2.48-5.61-9.1-9A37.41,37.41,0,0,0,50.12.62,50.69,50.69,0,0,0,34.9.53,45.08,45.08,0,0,0,20,5.38a39,39,0,0,0-12.16,10l7.31,7.65a23.09,23.09,0,0,1,8.93-8.33,37.68,37.68,0,0,1,12.76-4.25A36,36,0,0,1,50,10.82,20.89,20.89,0,0,1,60.15,16q4,3.82,4,10.45v6.47h0v9h0V66.76l0,0"/><path d="M87.33,43.71a5.67,5.67,0,0,1-3.79-1.56,4.65,4.65,0,0,1-1.48-3.72,5.07,5.07,0,0,1,1.56-3.6,5.41,5.41,0,0,1,3.71-1.52,4.53,4.53,0,0,1,3.6,1.44,5.44,5.44,0,0,1,1.52,3.68A5,5,0,0,1,91,42.23,4.7,4.7,0,0,1,87.33,43.71Zm-5,21.82a5,5,0,0,1,1.56-3.59,5.37,5.37,0,0,1,3.72-1.52,4.56,4.56,0,0,1,3.63,1.44,5,5,0,0,1,1.48,3.67A15.42,15.42,0,0,1,92,69.69q-.72,2.48-1.72,5c-.66,1.7-1.32,3.28-2,4.72L84.7,77.93a16.52,16.52,0,0,0,1.36-3.6,32.38,32.38,0,0,0,.72-3.84A4.19,4.19,0,0,1,83.58,69,4.62,4.62,0,0,1,82.3,65.53Z"/></symbol></defs><use width="97.73" height="86.96" transform="translate(16.5 9.45) scale(2.74)" xlink:href="#ACC-Short"/><path d="M10.89,319a9.1,9.1,0,0,1-5.61-1.89A6.32,6.32,0,0,1,3,311.81a7.47,7.47,0,0,1,2.11-5.64,10.43,10.43,0,0,1,5.76-2.62,24.7,24.7,0,0,1,8.16.24v-1.72A3.49,3.49,0,0,0,18,299.4a5.62,5.62,0,0,0-2.71-1.32,10,10,0,0,0-3.46-.07,10.4,10.4,0,0,0-3.38,1.1A6.31,6.31,0,0,0,6,301.3l-2.35-2.5A10.33,10.33,0,0,1,7.27,296a14.81,14.81,0,0,1,4.44-1.3,13.83,13.83,0,0,1,4.46.15A9.88,9.88,0,0,1,20,296.4a5.12,5.12,0,0,1,2.18,2.47,11,11,0,0,1,.7,3.48c.06,1.32.09,2.72.09,4.23v12.14H19.1v-2.25a12.61,12.61,0,0,1-3.93,1.92A14.46,14.46,0,0,1,10.89,319Zm8.12-5.9v-6.29a21.51,21.51,0,0,0-9.08.38,4.46,4.46,0,0,0-3.36,4.61,3.18,3.18,0,0,0,.89,2.4,4.44,4.44,0,0,0,2.31,1.15,9.54,9.54,0,0,0,3.09.1,13.37,13.37,0,0,0,3.31-.82A11.1,11.1,0,0,0,19,313.06Z"/><path d="M31.53,318.72H27.74v-33.6h3.79Z"/><path d="M43.72,319a9.1,9.1,0,0,1-5.61-1.89,6.32,6.32,0,0,1-2.26-5.26A7.47,7.47,0,0,1,38,306.17a10.37,10.37,0,0,1,5.75-2.62,24.76,24.76,0,0,1,8.17.24v-1.72a3.5,3.5,0,0,0-1.06-2.67,5.62,5.62,0,0,0-2.71-1.32,10,10,0,0,0-3.46-.07,10.4,10.4,0,0,0-3.38,1.1,6.31,6.31,0,0,0-2.45,2.19l-2.35-2.5A10.33,10.33,0,0,1,40.1,296a14.89,14.89,0,0,1,4.44-1.3,13.9,13.9,0,0,1,4.47.15,9.9,9.9,0,0,1,3.79,1.58A5.12,5.12,0,0,1,55,298.87a11,11,0,0,1,.7,3.48c.06,1.32.09,2.72.09,4.23v12.14H51.93v-2.25A12.61,12.61,0,0,1,48,318.39,14.46,14.46,0,0,1,43.72,319Zm8.12-5.9v-6.29a21.51,21.51,0,0,0-9.08.38,4.46,4.46,0,0,0-3.36,4.61,3.18,3.18,0,0,0,.89,2.4,4.48,4.48,0,0,0,2.31,1.15,9.54,9.54,0,0,0,3.09.1,13.55,13.55,0,0,0,3.32-.82A11.21,11.21,0,0,0,51.84,313.06Z"/><path d="M81.6,318.72H77.8V304.47a6.26,6.26,0,0,0-1-3.7,5.5,5.5,0,0,0-2.5-2,8.39,8.39,0,0,0-3.14-.6,7.82,7.82,0,0,0-3.14.67,6.5,6.5,0,0,0-2.62,2.06,5.77,5.77,0,0,0-1.06,3.56v14.25H60.57v-24h3.79v2.59a6.36,6.36,0,0,1,3-2.18,11.7,11.7,0,0,1,4-.7,11.32,11.32,0,0,1,5.11,1.16A8.86,8.86,0,0,1,80.2,299a10.19,10.19,0,0,1,1.4,5.5Z"/><path d="M93.31,319a9.16,9.16,0,0,1-5.62-1.89,6.35,6.35,0,0,1-2.25-5.26,7.47,7.47,0,0,1,2.11-5.64,10.43,10.43,0,0,1,5.76-2.62,24.71,24.71,0,0,1,8.16.24v-1.72a3.47,3.47,0,0,0-1.06-2.67,5.57,5.57,0,0,0-2.71-1.32,10,10,0,0,0-3.46-.07,10.48,10.48,0,0,0-3.38,1.1,6.38,6.38,0,0,0-2.45,2.19l-2.35-2.5A10.33,10.33,0,0,1,89.68,296a15,15,0,0,1,4.44-1.3,13.89,13.89,0,0,1,4.47.15,9.83,9.83,0,0,1,3.79,1.58,5.07,5.07,0,0,1,2.18,2.47,10.75,10.75,0,0,1,.7,3.48c.06,1.32.1,2.72.1,4.23v12.14h-3.84v-2.25a12.77,12.77,0,0,1-3.94,1.92A14.39,14.39,0,0,1,93.31,319Zm8.11-5.9v-6.29a21.46,21.46,0,0,0-9.07.38A4.46,4.46,0,0,0,89,311.76a3.15,3.15,0,0,0,.89,2.4,4.45,4.45,0,0,0,2.3,1.15,9.6,9.6,0,0,0,3.1.1,13.48,13.48,0,0,0,3.31-.82A11,11,0,0,0,101.42,313.06Z"/><path d="M147.69,315.6a13.15,13.15,0,0,1-5.23,3,11.28,11.28,0,0,1-5.3.26,10.77,10.77,0,0,1-4.66-2.16,12.07,12.07,0,0,1-3.34-4.22,13.46,13.46,0,0,1-1.24-5.93,13.26,13.26,0,0,1,1.22-5.88,10.67,10.67,0,0,1,8-6,12.26,12.26,0,0,1,5.35.36,13.93,13.93,0,0,1,5.26,3l-2.4,2.73a9.25,9.25,0,0,0-4.49-2.23,7.75,7.75,0,0,0-4.44.48,7.66,7.66,0,0,0-3.36,2.83,8.47,8.47,0,0,0-1.29,4.78,9.3,9.3,0,0,0,1.32,5.11,7.67,7.67,0,0,0,3.43,3,7.46,7.46,0,0,0,4.49.51,8.43,8.43,0,0,0,4.44-2.5Z"/><path d="M158.49,319a9.1,9.1,0,0,1-5.61-1.89,6.32,6.32,0,0,1-2.26-5.26,7.47,7.47,0,0,1,2.11-5.64,10.43,10.43,0,0,1,5.76-2.62,24.71,24.71,0,0,1,8.16.24v-1.72a3.49,3.49,0,0,0-1.05-2.67,5.61,5.61,0,0,0-2.72-1.32,10,10,0,0,0-3.45-.07,10.54,10.54,0,0,0-3.39,1.1,6.35,6.35,0,0,0-2.44,2.19l-2.36-2.5a10.27,10.27,0,0,1,3.63-2.83,14.81,14.81,0,0,1,4.44-1.3,13.84,13.84,0,0,1,4.46.15,9.83,9.83,0,0,1,3.79,1.58,5.09,5.09,0,0,1,2.19,2.47,10.76,10.76,0,0,1,.69,3.48c.07,1.32.1,2.72.1,4.23v12.14H166.7v-2.25a12.77,12.77,0,0,1-3.94,1.92A14.39,14.39,0,0,1,158.49,319Zm8.11-5.9v-6.29a21.47,21.47,0,0,0-9.07.38,4.46,4.46,0,0,0-3.36,4.61,3.18,3.18,0,0,0,.89,2.4,4.45,4.45,0,0,0,2.3,1.15,9.61,9.61,0,0,0,3.1.1,13.48,13.48,0,0,0,3.31-.82A11,11,0,0,0,166.6,313.06Z"/><path d="M179.13,328.32h-3.79v-33.6h3.79v1.39a14.13,14.13,0,0,1,6.43-1.58,10.58,10.58,0,0,1,9.53,5.86,13.85,13.85,0,0,1,1.46,6.57,13.64,13.64,0,0,1-1.36,6.19,10.36,10.36,0,0,1-3.87,4.28,11.18,11.18,0,0,1-5.81,1.58,19.29,19.29,0,0,1-3.07-.29,8.85,8.85,0,0,1-3.31-1.29Zm0-14.73a12.25,12.25,0,0,0,5,1.65,8.41,8.41,0,0,0,4.37-.69,7.05,7.05,0,0,0,3.09-2.84,9.06,9.06,0,0,0,1.16-4.75,9.8,9.8,0,0,0-1.18-5,7.16,7.16,0,0,0-3.15-3,7.91,7.91,0,0,0-4.39-.67,11.2,11.2,0,0,0-4.87,1.84Z"/><path d="M211.53,319.3a12.08,12.08,0,0,1-6.07-1.49,10.38,10.38,0,0,1-4.08-4.2,13.16,13.16,0,0,1-1.46-6.36,14.72,14.72,0,0,1,1.53-7.06,10.42,10.42,0,0,1,4.15-4.27,12.11,12.11,0,0,1,5.93-1.44,12.27,12.27,0,0,1,6,1.44,10.1,10.1,0,0,1,4.11,4.27,15.09,15.09,0,0,1,1.49,7.06,13.05,13.05,0,0,1-1.49,6.36,10.52,10.52,0,0,1-4.11,4.2A12,12,0,0,1,211.53,319.3Zm0-3.65a7.89,7.89,0,0,0,4.32-1.13,7.23,7.23,0,0,0,2.69-3,9.66,9.66,0,0,0,.91-4.22,10.12,10.12,0,0,0-2-6.5,8,8,0,0,0-11.78,0,10.21,10.21,0,0,0-2,6.48,10,10,0,0,0,.89,4.25,7.07,7.07,0,0,0,2.66,3A8,8,0,0,0,211.53,315.65Z"/><path d="M227.47,318.72V295h3.79v2.21a6.45,6.45,0,0,1,3.91-2.16,13.87,13.87,0,0,1,5.88.62L239.27,299a6.56,6.56,0,0,0-4-.26,5.88,5.88,0,0,0-3,1.75,3.82,3.82,0,0,0-1.05,2.69v15.5Z"/><path d="M249.88,319a9.1,9.1,0,0,1-5.61-1.89,6.32,6.32,0,0,1-2.26-5.26,7.47,7.47,0,0,1,2.11-5.64,10.43,10.43,0,0,1,5.76-2.62,24.71,24.71,0,0,1,8.16.24v-1.72A3.49,3.49,0,0,0,257,299.4a5.61,5.61,0,0,0-2.72-1.32,10,10,0,0,0-3.45-.07,10.54,10.54,0,0,0-3.39,1.1A6.35,6.35,0,0,0,245,301.3l-2.35-2.5a10.33,10.33,0,0,1,3.62-2.83,14.81,14.81,0,0,1,4.44-1.3,13.84,13.84,0,0,1,4.46.15,9.88,9.88,0,0,1,3.8,1.58,5.12,5.12,0,0,1,2.18,2.47,11,11,0,0,1,.7,3.48c.06,1.32.09,2.72.09,4.23v12.14h-3.84v-2.25a12.61,12.61,0,0,1-3.93,1.92A14.46,14.46,0,0,1,249.88,319Zm8.12-5.9v-6.29a21.51,21.51,0,0,0-9.08.38,4.46,4.46,0,0,0-3.36,4.61,3.18,3.18,0,0,0,.89,2.4,4.44,4.44,0,0,0,2.31,1.15,9.54,9.54,0,0,0,3.09.1,13.48,13.48,0,0,0,3.31-.82A11.27,11.27,0,0,0,258,313.06Z"/><path d="M270.52,318.72h-3.79v-33.6h3.79Z"/><path d="M297.5,307.87H278.83a7.64,7.64,0,0,0,1.68,4.95,7.51,7.51,0,0,0,4,2.4,11.19,11.19,0,0,0,5.23-.1,14.31,14.31,0,0,0,5.28-2.54l2,3a16.62,16.62,0,0,1-10,3.6q-6,.15-9.17-3.33t-3.16-9.72a11.86,11.86,0,0,1,3-8.5q3-3.17,8.71-3.12a12.43,12.43,0,0,1,6.38,1.54,9.08,9.08,0,0,1,3.89,4.56,10.93,10.93,0,0,1,.79,3.31A22.11,22.11,0,0,1,297.5,307.87ZM286.65,298a9,9,0,0,0-5.54,1.71,5.91,5.91,0,0,0-2.28,5.06h15.26a6.36,6.36,0,0,0-2-5A7.84,7.84,0,0,0,286.65,298Z"/></svg>