<svg xmlns="http://www.w3.org/2000/svg" xmlns:xlink="http://www.w3.org/1999/xlink" viewBox="0 0 31 27.58"><defs><style>.cls-1{fill:#60f;}</style><symbol id="ACC-v2" data-name="ACC-v2" viewBox="0 0 31 27.58"><path d="M15.21,22.54a17,17,0,0,1-4.07.94,12.69,12.69,0,0,1-3.83-.13,5.59,5.59,0,0,1-2.86-1.43,4,4,0,0,1-1.11-3,5.44,5.44,0,0,1,2-4.53,10.19,10.19,0,0,1,5.45-1.89,35.89,35.89,0,0,1,7.89.27V9.94A31.24,31.24,0,0,0,9,9.57a11.34,11.34,0,0,0-6.58,2.91A8.64,8.64,0,0,0,0,19a7.51,7.51,0,0,0,1.24,4.42A7.46,7.46,0,0,0,4.53,26a12.27,12.27,0,0,0,4.53.91,18.84,18.84,0,0,0,5-.7,15.21,15.21,0,0,0,4.55-2.06V20.69A12.79,12.79,0,0,1,15.21,22.54Z"/><path class="cls-1" d="M20.4,24.63v2.53H24L24,13.73c0-1.83-.1-3.53-.17-5.09A11.51,11.51,0,0,0,23,4.51a5.92,5.92,0,0,0-2.88-2.86A11.91,11.91,0,0,0,15.9.2a15.94,15.94,0,0,0-4.83,0A14.23,14.23,0,0,0,6.35,1.71,12.43,12.43,0,0,0,2.49,4.89L4.81,7.32A7.41,7.41,0,0,1,7.64,4.67a12.18,12.18,0,0,1,4.05-1.35,11.49,11.49,0,0,1,4.15.11,6.63,6.63,0,0,1,3.24,1.65,4.38,4.38,0,0,1,1.27,3.31v2h0V13.3h0v7.88h0"/><path d="M27.7,13.86a1.76,1.76,0,0,1-1.2-.49A1.47,1.47,0,0,1,26,12.19a1.58,1.58,0,0,1,.49-1.14,1.66,1.66,0,0,1,1.18-.48,1.41,1.41,0,0,1,1.14.45,1.67,1.67,0,0,1,.48,1.17,1.56,1.56,0,0,1-.45,1.2A1.48,1.48,0,0,1,27.7,13.86Zm-1.6,6.93a1.63,1.63,0,0,1,.5-1.14,1.7,1.7,0,0,1,1.18-.49,1.49,1.49,0,0,1,1.15.46,1.62,1.62,0,0,1,.47,1.17,5.08,5.08,0,0,1-.23,1.32q-.23.78-.54,1.59c-.21.54-.42,1-.62,1.5l-1.15-.48a5.61,5.61,0,0,0,.44-1.14,10.81,10.81,0,0,0,.22-1.22,1.34,1.34,0,0,1-1-.47A1.5,1.5,0,0,1,26.1,20.79Z"/></symbol></defs><g id="Layer_2" data-name="Layer 2"><g id="Layer_1-2" data-name="Layer 1"><use width="31" height="27.58" xlink:href="#ACC-v2"/></g></g></svg>